<mxfile host="Electron" agent="Mozilla/5.0 (Windows NT 10.0; Win64; x64) AppleWebKit/537.36 (KHTML, like Gecko) draw.io/28.1.2 Chrome/138.0.7204.243 Electron/37.4.0 Safari/537.36" version="28.1.2">
  <diagram name="Page-1" id="OtOmRhZqi_6xwt2Tez9j">
    <mxGraphModel dx="1213" dy="828" grid="1" gridSize="10" guides="1" tooltips="1" connect="1" arrows="1" fold="1" page="1" pageScale="1" pageWidth="850" pageHeight="1100" math="0" shadow="0">
      <root>
        <mxCell id="0" />
        <mxCell id="1" parent="0" />
        <mxCell id="dD6pzufTazgub8E4TdOT-10" value="" style="shape=image;aspect=fixed;image=data:image/svg+xml,PD94bWwgdmVyc2lvbj0iMS4wIiBlbmNvZGluZz0idXRmLTgiPz4NCjwhLS0gVXBsb2FkZWQgdG86IFNWRyBSZXBvLCB3d3cuc3ZncmVwby5jb20sIEdlbmVyYXRvcjogU1ZHIFJlcG8gTWl4ZXIgVG9vbHMgLS0+DQo8c3ZnIHdpZHRoPSI4MDBweCIgaGVpZ2h0PSI4MDBweCIgdmlld0JveD0iMCAtMzIuOTcgMzgwLjY2OCAzODAuNjY4IiB4bWxucz0iaHR0cDovL3d3dy53My5vcmcvMjAwMC9zdmciPjxkZWZzPjxzdHlsZT4uYXtmaWxsOiNjZmNmY2Y7fS5ie2ZpbGw6IzIxMTcxNTt9LmN7ZmlsbDojZmZmZmZmO308L3N0eWxlPjwvZGVmcz48cGF0aCBjbGFzcz0iYSIgZD0iTTIzNy44NTYsMjE3LjIwNnY5NS4xYy02Ljg3NCwwLTg0LjU3Ni0uMDM0LTk0LjA0Mi4wMTRWMjE3LjIwNiIvPjxwYXRoIGNsYXNzPSJiIiBkPSJNMjM1LjQ1NiwyMTcuMjA2djk1LjFsMi40LTIuNC0zMi4yMDktLjAxcS0yMy42LDAtNDcuMjA5LDBjLTQuODc0LDAtOS43NDksMC0xNC42MjQuMDIxbDIuNCwyLjRWMjE3LjIwNmMwLTMuMDg5LTQuOC0zLjA5NC00LjgsMFYzMTIuMzJhMi40MzQsMi40MzQsMCwwLDAsMi40LDIuNGMxMS4zNTMtLjA1NywyMi43MDgtLjAyNiwzNC4wNjEtLjAyNnEyMy4zNDQsMCw0Ni42ODkuMDA4bDEzLjI5MiwwYTIuNDM0LDIuNDM0LDAsMCwwLDIuNC0yLjR2LTk1LjFjMC0zLjA4OS00LjgtMy4wOTQtNC44LDBaIi8+PHBhdGggY2xhc3M9ImIiIGQ9Ik0xNTQuMjI1LDMwMy4zODFoNzMuMjJjMy4wODgsMCwzLjA5My00LjgsMC00LjhoLTczLjIyYy0zLjA4OCwwLTMuMDkzLDQuOCwwLDQuOFoiLz48cGF0aCBjbGFzcz0iYiIgZD0iTTM4MC42LDIxNy4xOTFWMjUuMzQ1YzAtNy40MzIuMTYzLTE0Ljg4NCwwLTIyLjMxNSwwLS4yMSwwLS40MiwwLS42M0EyLjQzNSwyLjQzNSwwLDAsMCwzNzguMiwwSDIuNEEyLjQzNSwyLjQzNSwwLDAsMCwwLDIuNFYyMTcuMjA2YTIuNDM1LDIuNDM1LDAsMCwwLDIuNCwyLjRIMjMyLjQ3bDQ2LjQ1NiwwLDQxLjEzMSwwLDMyLjk0LDAsMjEuODgyLDBIMzc4LjJjMy4wODgsMCwzLjA5NC00LjgsMC00LjhsLTE4Ljc3LDAtMzAuNTIyLDAtMzkuNDA5LDAtNDUuNDI4LDBIMi40bDIuNCwyLjRWMi40TDIuNCw0LjhIMzc4LjJsLTIuNC0yLjRWMjE3LjE5MUMzNzUuOCwyMjAuMjgsMzgwLjYsMjIwLjI4NSwzODAuNiwyMTcuMTkxWiIvPjxwYXRoIGNsYXNzPSJiIiBkPSJNMzc4LjIsMjE3LjE5MVYyLjRIMi40VjIxNy4yMDZDNDEuMDgyLDIxNy4yMDYsMzM3LjQzNiwyMTcuMjA2LDM3OC4yLDIxNy4xOTFaIi8+PHBhdGggY2xhc3M9ImMiIGQ9Ik0zNjYuODY0LDIwNS44NTNWMTMuNzM5SDEzLjc0NlYyMDUuODY3QzUyLjQyNywyMDUuODY3LDMyNi4xMDUsMjA1Ljg2NywzNjYuODY0LDIwNS44NTNaIi8+PHBhdGggY2xhc3M9ImMiIGQ9Ik0zNjkuMjY0LDIwNS44NTNWMzMuOTA5YzAtNi41MTUuMTMyLTEzLjA0NiwwLTE5LjU2LDAtLjIsMC0uNDA3LDAtLjYxYTIuNDM0LDIuNDM0LDAsMCwwLTIuNC0yLjRIMTMuNzQ2YTIuNDM0LDIuNDM0LDAsMCwwLTIuNCwyLjRWMjA1Ljg2N2EyLjQzNCwyLjQzNCwwLDAsMCwyLjQsMi40SDE4My44NjhsNDUuNjA2LDBoNDMuMzc5bDM4LjU0LDAsMzEuMjA5LDAsMjAuOTIsMGgzLjM0MmMzLjA4OSwwLDMuMDk0LTQuOCwwLTQuOHEtOS4wNzYsMC0xOC4xNTQsMGwtMjguODU0LDAtMzYuOTQ1LDAtNDIuNDI4LDBIMTMuNzQ2bDIuNCwyLjRWMTMuNzM5bC0yLjQsMi40SDM2Ni44NjRsLTIuNC0yLjRWMjA1Ljg1M0MzNjQuNDY0LDIwOC45NDEsMzY5LjI2NCwyMDguOTQ2LDM2OS4yNjQsMjA1Ljg1M1oiLz48L3N2Zz4=;" vertex="1" parent="1">
          <mxGeometry x="140" y="40" width="80" height="80" as="geometry" />
        </mxCell>
        <mxCell id="dD6pzufTazgub8E4TdOT-11" value="" style="shape=image;aspect=fixed;image=data:image/svg+xml,PD94bWwgdmVyc2lvbj0iMS4wIiBlbmNvZGluZz0idXRmLTgiPz48IS0tIFVwbG9hZGVkIHRvOiBTVkcgUmVwbywgd3d3LnN2Z3JlcG8uY29tLCBHZW5lcmF0b3I6IFNWRyBSZXBvIE1peGVyIFRvb2xzIC0tPgo8c3ZnIHdpZHRoPSI4MDBweCIgaGVpZ2h0PSI4MDBweCIgdmlld0JveD0iMCAtMTEuMTggNjkuOTk5IDY5Ljk5OSIgeG1sbnM6ZGM9Imh0dHA6Ly9wdXJsLm9yZy9kYy9lbGVtZW50cy8xLjEvIiB4bWxuczpjYz0iaHR0cDovL2NyZWF0aXZlY29tbW9ucy5vcmcvbnMjIiB4bWxuczpyZGY9Imh0dHA6Ly93d3cudzMub3JnLzE5OTkvMDIvMjItcmRmLXN5bnRheC1ucyMiIHhtbG5zPSJodHRwOi8vd3d3LnczLm9yZy8yMDAwL3N2ZyI+CiAgICA8bWV0YWRhdGE+CiAgICAgICAgPHJkZjpSREY+CiAgICAgICAgICAgIDxjYzpXb3JrPgogICAgICAgICAgICAgICAgPGRjOnN1YmplY3Q+CiAgICAgICAgICAgICAgICAgICAgTmV0d29yawogICAgICAgICAgICAgICAgPC9kYzpzdWJqZWN0PgogICAgICAgICAgICAgICAgPGRjOmlkZW50aWZpZXI+CiAgICAgICAgICAgICAgICAgICAgY29udGVudC1kZWxpdmVyeS1uZXR3b3JrLWNkbgogICAgICAgICAgICAgICAgPC9kYzppZGVudGlmaWVyPgogICAgICAgICAgICAgICAgPGRjOnRpdGxlPgogICAgICAgICAgICAgICAgICAgIENvbnRlbnQgRGVsaXZlcnkgTmV0d29yayAoQ0ROKQogICAgICAgICAgICAgICAgPC9kYzp0aXRsZT4KICAgICAgICAgICAgICAgIDxkYzpmb3JtYXQ+CiAgICAgICAgICAgICAgICAgICAgaW1hZ2Uvc3ZnK3htbAogICAgICAgICAgICAgICAgPC9kYzpmb3JtYXQ+CiAgICAgICAgICAgICAgICA8ZGM6cHVibGlzaGVyPgogICAgICAgICAgICAgICAgICAgIEFtaWRvIExpbWl0ZWQKICAgICAgICAgICAgICAgIDwvZGM6cHVibGlzaGVyPgogICAgICAgICAgICAgICAgPGRjOmNyZWF0b3I+CiAgICAgICAgICAgICAgICAgICAgUmljaGFyZCBTbGF0ZXIKICAgICAgICAgICAgICAgIDwvZGM6Y3JlYXRvcj4KICAgICAgICAgICAgICAgIDxkYzp0eXBlIHJkZjpyZXNvdXJjZT0iaHR0cDovL3B1cmwub3JnL2RjL2RjbWl0eXBlL1N0aWxsSW1hZ2UiLz4KICAgICAgICAgICAgPC9jYzpXb3JrPgogICAgICAgIDwvcmRmOlJERj4KICAgIDwvbWV0YWRhdGE+CiAgICA8cGF0aCBkPSJtIC0xMzQuNzM2ODksNTQ3LjgwMjgxIGMgLTIuODM4MDMsLTAuNDc5OCAtNS4xNTUwMSwtMS42NTk0IC03LjMxNzM4LC0zLjcyNTMgLTMuNzY3MzEsLTMuNTk5MyAtNS4yMTA1NSwtOS4yNjE3IC0zLjYxMTMyLC0xNC4xNjg2IDEuMjM1MTYsLTMuNzg5OCAzLjg2MDM3LC02Ljc3MzQgNy40NTM5NCwtOC40NzE0IDAuODYxMzUsLTAuNDA3IDAuODY1NjcsLTAuNDExOSAwLjc4Mjk5LC0wLjg5MzEgLTAuNDMyNywtMi41MTc5IC0wLjM3MjEyLC00LjIzNyAwLjIxNzM3LC02LjE2ODkgMC4zOTEzMywtMS4yODI2IDEuMzc5NTYsLTMuMTA1MiAyLjIxODEyLC00LjA5MTEgMi40MDUxMiwtMi44Mjc2IDUuNDA3MTgsLTQuMjI4NCA5LjAyNTkxLC00LjIxMTYgMy4yMjExMSwwLjAxNSA1LjcxNzQsMS4wNDEyIDguMTg2NzcsMy4zNjU3IGwgMC42OTg1OSwwLjY1NzYgMC4zMzE4OSwtMC43MTc0IGMgMS40NTQ5OSwtMy4xNDUxIDQuNzIzODIsLTYuMzYwMyA3Ljk5MzMsLTcuODYyIDEuNDgzODMsLTAuNjgxNiAzLjgxMTMsLTEuMzczNCAzLjgxMTMsLTEuMTMyOCAwLDAuMDIyIC0xLjgyNjU4LDQuOTIxNyAtNC4wNTkwOCwxMC44ODg0IC0yLjMyNDYxLDYuMjEyOSAtNC4wNDE5LDEwLjk5NTUgLTQuMDE4ODgsMTEuMTkyNCBsIDAuMDQwMiwwLjM0MzggMy43Nzg0NCwwLjA2OSBjIDIuMDc4MTQsMC4wMzggMy44NTU3MywwLjExODggMy45NTAxOSwwLjE3OTkgMC4wOTQ1LDAuMDYxIDAuMTcxNzQsMC4yMzExIDAuMTcxNzQsMC4zNzc2IDAsMC4xNDY2IC0xLjQ5MDI4LDMuODk5IC0zLjMxMTczLDguMzM4OCAtNC4wMTIsOS43NzkzIC0zLjg2NjU1LDkuNDEzMyAtMy43MTg2Nyw5LjM1NTcgMC4xNDM2LC0wLjA1NiAyMi4wNzYxOTUsLTI1LjA0OTEgMjIuMzg3MzU1LC0yNS41MTE0IDAuMTg0OTksLTAuMjc0OCAwLjE4Nzk2LC0wLjMzODggMC4wMjA3LC0wLjQ0NTcgLTAuMTE0MTEsLTAuMDczIC0xLjk5NSwtMC4wODggLTQuNTI2NzIsLTAuMDM2IC00LjQ2MjUzLDAuMDkyIC00Ljk0Mjg2LDAuMDQ5IC00Ljk0Mjg2LC0wLjQ0MzUgMCwtMC4yNTk2IDYuNzI1MjksLTExLjYwMSA2Ljg3OTI1LC0xMS42MDEgMC4xOTc3NywwIDEuNjczMTgsMS4yOTM5IDIuNjA1NjEsMi4yODUxIDIuMTQ1NzcsMi4yODEgMy42MzY1MSw1LjMwNDkgNC4xODI3LDguNDg0MiAwLjI2MTgsMS41MjQgMC4yNjI0Nyw0LjA2NzYgMC4wMDEsNS41MTIzIC0wLjI0NzYyLDEuMzcwNSAtMC4yNTAyOSwxLjU4MDEgLTAuMDIwMSwxLjU4MDEgMC4zNTc3NSwwIDIuOTE4ODgsMS4zNDUzIDMuNzMxOTEsMS45NjAzIDIuNDc3NDEsMS44NzM5IDQuMzYxMzEsNC42NjI4IDUuMTcyNzIsNy42NTc1IDAuMjc1NDEsMS4wMTY1IDAuMzE1NjMsMS40Nzk3IDAuMzEwMjIsMy41NzI0IC0wLjAwNiwyLjIwMzEgLTAuMDM3MiwyLjUwOCAtMC4zNzYzOCwzLjY0MSAtMS40NzU2LDQuOTI5NSAtNS4wNDc5MSw4LjQ0MjQgLTkuOTY3ODUsOS44MDE5IGwgLTEuMzIxNjEsMC4zNjUyIC0yMi44MDgwNDUsMC4wMjIgYyAtMTkuMDUxODcsMC4wMTggLTIyLjk5NjQ0LC0wLjAxIC0yMy45NTIwOCwtMC4xNzEzIHoiIGZpbGw9IiMwMGJjZjIiIHRyYW5zZm9ybT0idHJhbnNsYXRlKDE0Ni4zMSAtNTAwLjMzNSkiLz4KPC9zdmc+;" vertex="1" parent="1">
          <mxGeometry x="30" y="170" width="70" height="70" as="geometry" />
        </mxCell>
        <mxCell id="dD6pzufTazgub8E4TdOT-12" value="" style="shape=image;aspect=fixed;image=data:image/svg+xml,PD94bWwgdmVyc2lvbj0iMS4wIiBlbmNvZGluZz0idXRmLTgiPz4NCjwhLS0gVXBsb2FkZWQgdG86IFNWRyBSZXBvLCB3d3cuc3ZncmVwby5jb20sIEdlbmVyYXRvcjogU1ZHIFJlcG8gTWl4ZXIgVG9vbHMgLS0+DQo8c3ZnIHdpZHRoPSI4MDBweCIgaGVpZ2h0PSI4MDBweCIgdmlld0JveD0iMCAwIDEwMjQgMTAyNCIgY2xhc3M9Imljb24iICB2ZXJzaW9uPSIxLjEiIHhtbG5zPSJodHRwOi8vd3d3LnczLm9yZy8yMDAwL3N2ZyI+PHBhdGggZD0iTTQ0Ny41IDk2MC4zbC0zMjEtMTEwdi02NDJsMzIxIDgyeiIgZmlsbD0iIzM3QkJFRiIgLz48cGF0aCBkPSJNNDQ3LjUgOTYwLjNsNDUwLTI0MHYtNjAwbC00NTAgMTcweiIgZmlsbD0iIzI0ODFCQSIgLz48cGF0aCBkPSJNMTI2LjUgMjA4LjNsMzIxIDgyIDQ1MC0xNzAtMzQ0LjQtNTYuNnoiIGZpbGw9IiMzRUQ2RkYiIC8+PHBhdGggZD0iTTQwMC4zIDM0OC45djgwbC0yMzktNjB2LTgwbDIzOSA2MHogbS0yMzkgNDguM2wyMzkgNjB2LTEwbC0yMzktNjB2MTB6IG0wIDIzbDIzOSA2MHYtMTBsLTIzOS02MHYxMHogbTAgMjNsMjM5IDYwdi0xMGwtMjM5LTYwdjEweiIgZmlsbD0iI0Q0RjdGRiIgLz48cGF0aCBkPSJNMTc1LjcgMzA4LjR2MzRsMjEwLjIgNTN2LTM0ek0xNzUuNyAzNjMuNGwyMTAuMiA1M3YtMTMuM2wtMjEwLjItNTN6IiBmaWxsPSIjMTEzQjQyIiAvPjxwYXRoIGQ9Ik00NDcuNSA4OTQuMXYtNS4ybC0xNzQuNC01NS4zLTEuMiA0Ljh6TTI3MS45IDgwOS4zTDQ0Ny41IDg2NHYtNS4zbC0xNzQuNC01NC4zek0yNzEuOSA3ODAuMWwxNzUuNiA1My43di01LjJsLTE3NC40LTUzLjR6TTQ0Ny41IDcwNy45bC0xNzQuNC00OS4zLTEuMiA0LjggMTc1LjYgNDkuN3pNMjcxLjkgNjkyLjZsMTc1LjYgNTAuN3YtNS4ybC0xNzQuNC01MC40ek0yNzEuOSA3NTAuOWwxNzUuNiA1Mi43di01LjJsLTE3NC40LTUyLjN6TTI3MS45IDcyMS44bDE3NS42IDUxLjd2LTUuM2wtMTc0LjQtNTEuM3oiIGZpbGw9IiMwMDcxQkMiIC8+PHBhdGggZD0iTTM3OS41IDU0MC44Yy05LjQtMy40LTE3IDEuNi0xNyAxMS4yczcuNiAyMC4xIDE3IDIzLjIgMTctMS45IDE3LTExLjItNy42LTE5LjgtMTctMjMuMnpNMzc5LjUgNjAzLjZjLTMuOS0xLjItNyAxLTcgNC45czMuMSA4LjEgNyA5LjMgNy0xIDctNC45YzAtMy45LTMuMS04LTctOS4zeiIgZmlsbD0iI0ZGRkZGRiIgLz48L3N2Zz4=;" vertex="1" parent="1">
          <mxGeometry x="270" y="160" width="70" height="70" as="geometry" />
        </mxCell>
        <mxCell id="dD6pzufTazgub8E4TdOT-13" value="" style="shape=image;aspect=fixed;image=data:image/svg+xml,PD94bWwgdmVyc2lvbj0iMS4wIiBlbmNvZGluZz0idXRmLTgiPz4NCjwhLS0gVXBsb2FkZWQgdG86IFNWRyBSZXBvLCB3d3cuc3ZncmVwby5jb20sIEdlbmVyYXRvcjogU1ZHIFJlcG8gTWl4ZXIgVG9vbHMgLS0+DQo8c3ZnIHdpZHRoPSI4MDBweCIgaGVpZ2h0PSI4MDBweCIgdmlld0JveD0iMCAwIDEwMjQgMTAyNCIgY2xhc3M9Imljb24iICB2ZXJzaW9uPSIxLjEiIHhtbG5zPSJodHRwOi8vd3d3LnczLm9yZy8yMDAwL3N2ZyI+PHBhdGggZD0iTTQ0Ny41IDk2MC4zbC0zMjEtMTEwdi02NDJsMzIxIDgyeiIgZmlsbD0iIzM3QkJFRiIgLz48cGF0aCBkPSJNNDQ3LjUgOTYwLjNsNDUwLTI0MHYtNjAwbC00NTAgMTcweiIgZmlsbD0iIzI0ODFCQSIgLz48cGF0aCBkPSJNMTI2LjUgMjA4LjNsMzIxIDgyIDQ1MC0xNzAtMzQ0LjQtNTYuNnoiIGZpbGw9IiMzRUQ2RkYiIC8+PHBhdGggZD0iTTQwMC4zIDM0OC45djgwbC0yMzktNjB2LTgwbDIzOSA2MHogbS0yMzkgNDguM2wyMzkgNjB2LTEwbC0yMzktNjB2MTB6IG0wIDIzbDIzOSA2MHYtMTBsLTIzOS02MHYxMHogbTAgMjNsMjM5IDYwdi0xMGwtMjM5LTYwdjEweiIgZmlsbD0iI0Q0RjdGRiIgLz48cGF0aCBkPSJNMTc1LjcgMzA4LjR2MzRsMjEwLjIgNTN2LTM0ek0xNzUuNyAzNjMuNGwyMTAuMiA1M3YtMTMuM2wtMjEwLjItNTN6IiBmaWxsPSIjMTEzQjQyIiAvPjxwYXRoIGQ9Ik00NDcuNSA4OTQuMXYtNS4ybC0xNzQuNC01NS4zLTEuMiA0Ljh6TTI3MS45IDgwOS4zTDQ0Ny41IDg2NHYtNS4zbC0xNzQuNC01NC4zek0yNzEuOSA3ODAuMWwxNzUuNiA1My43di01LjJsLTE3NC40LTUzLjR6TTQ0Ny41IDcwNy45bC0xNzQuNC00OS4zLTEuMiA0LjggMTc1LjYgNDkuN3pNMjcxLjkgNjkyLjZsMTc1LjYgNTAuN3YtNS4ybC0xNzQuNC01MC40ek0yNzEuOSA3NTAuOWwxNzUuNiA1Mi43di01LjJsLTE3NC40LTUyLjN6TTI3MS45IDcyMS44bDE3NS42IDUxLjd2LTUuM2wtMTc0LjQtNTEuM3oiIGZpbGw9IiMwMDcxQkMiIC8+PHBhdGggZD0iTTM3OS41IDU0MC44Yy05LjQtMy40LTE3IDEuNi0xNyAxMS4yczcuNiAyMC4xIDE3IDIzLjIgMTctMS45IDE3LTExLjItNy42LTE5LjgtMTctMjMuMnpNMzc5LjUgNjAzLjZjLTMuOS0xLjItNyAxLTcgNC45czMuMSA4LjEgNyA5LjMgNy0xIDctNC45YzAtMy45LTMuMS04LTctOS4zeiIgZmlsbD0iI0ZGRkZGRiIgLz48L3N2Zz4=;" vertex="1" parent="1">
          <mxGeometry x="300" y="170" width="70" height="70" as="geometry" />
        </mxCell>
        <mxCell id="dD6pzufTazgub8E4TdOT-14" value="" style="shape=image;aspect=fixed;image=data:image/svg+xml,PD94bWwgdmVyc2lvbj0iMS4wIiBlbmNvZGluZz0idXRmLTgiPz4NCjwhLS0gVXBsb2FkZWQgdG86IFNWRyBSZXBvLCB3d3cuc3ZncmVwby5jb20sIEdlbmVyYXRvcjogU1ZHIFJlcG8gTWl4ZXIgVG9vbHMgLS0+DQo8c3ZnIHdpZHRoPSI4MDBweCIgaGVpZ2h0PSI4MDBweCIgdmlld0JveD0iMCAwIDEwMjQgMTAyNCIgY2xhc3M9Imljb24iICB2ZXJzaW9uPSIxLjEiIHhtbG5zPSJodHRwOi8vd3d3LnczLm9yZy8yMDAwL3N2ZyI+PHBhdGggZD0iTTQ0Ny41IDk2MC4zbC0zMjEtMTEwdi02NDJsMzIxIDgyeiIgZmlsbD0iIzM3QkJFRiIgLz48cGF0aCBkPSJNNDQ3LjUgOTYwLjNsNDUwLTI0MHYtNjAwbC00NTAgMTcweiIgZmlsbD0iIzI0ODFCQSIgLz48cGF0aCBkPSJNMTI2LjUgMjA4LjNsMzIxIDgyIDQ1MC0xNzAtMzQ0LjQtNTYuNnoiIGZpbGw9IiMzRUQ2RkYiIC8+PHBhdGggZD0iTTQwMC4zIDM0OC45djgwbC0yMzktNjB2LTgwbDIzOSA2MHogbS0yMzkgNDguM2wyMzkgNjB2LTEwbC0yMzktNjB2MTB6IG0wIDIzbDIzOSA2MHYtMTBsLTIzOS02MHYxMHogbTAgMjNsMjM5IDYwdi0xMGwtMjM5LTYwdjEweiIgZmlsbD0iI0Q0RjdGRiIgLz48cGF0aCBkPSJNMTc1LjcgMzA4LjR2MzRsMjEwLjIgNTN2LTM0ek0xNzUuNyAzNjMuNGwyMTAuMiA1M3YtMTMuM2wtMjEwLjItNTN6IiBmaWxsPSIjMTEzQjQyIiAvPjxwYXRoIGQ9Ik00NDcuNSA4OTQuMXYtNS4ybC0xNzQuNC01NS4zLTEuMiA0Ljh6TTI3MS45IDgwOS4zTDQ0Ny41IDg2NHYtNS4zbC0xNzQuNC01NC4zek0yNzEuOSA3ODAuMWwxNzUuNiA1My43di01LjJsLTE3NC40LTUzLjR6TTQ0Ny41IDcwNy45bC0xNzQuNC00OS4zLTEuMiA0LjggMTc1LjYgNDkuN3pNMjcxLjkgNjkyLjZsMTc1LjYgNTAuN3YtNS4ybC0xNzQuNC01MC40ek0yNzEuOSA3NTAuOWwxNzUuNiA1Mi43di01LjJsLTE3NC40LTUyLjN6TTI3MS45IDcyMS44bDE3NS42IDUxLjd2LTUuM2wtMTc0LjQtNTEuM3oiIGZpbGw9IiMwMDcxQkMiIC8+PHBhdGggZD0iTTM3OS41IDU0MC44Yy05LjQtMy40LTE3IDEuNi0xNyAxMS4yczcuNiAyMC4xIDE3IDIzLjIgMTctMS45IDE3LTExLjItNy42LTE5LjgtMTctMjMuMnpNMzc5LjUgNjAzLjZjLTMuOS0xLjItNyAxLTcgNC45czMuMSA4LjEgNyA5LjMgNy0xIDctNC45YzAtMy45LTMuMS04LTctOS4zeiIgZmlsbD0iI0ZGRkZGRiIgLz48L3N2Zz4=;" vertex="1" parent="1">
          <mxGeometry x="330" y="180" width="70" height="70" as="geometry" />
        </mxCell>
        <mxCell id="dD6pzufTazgub8E4TdOT-15" value="" style="shape=image;aspect=fixed;image=data:image/svg+xml,PD94bWwgdmVyc2lvbj0iMS4wIiBlbmNvZGluZz0idXRmLTgiPz4NCjwhLS0gVXBsb2FkZWQgdG86IFNWRyBSZXBvLCB3d3cuc3ZncmVwby5jb20sIEdlbmVyYXRvcjogU1ZHIFJlcG8gTWl4ZXIgVG9vbHMgLS0+DQo8c3ZnIHdpZHRoPSI4MDBweCIgaGVpZ2h0PSI4MDBweCIgdmlld0JveD0iMCAwIDEwMjQgMTAyNCIgY2xhc3M9Imljb24iICB2ZXJzaW9uPSIxLjEiIHhtbG5zPSJodHRwOi8vd3d3LnczLm9yZy8yMDAwL3N2ZyI+PHBhdGggZD0iTTExNyA2MDguNHYxNzguNWMxLjUgOTMuNyAxNTUuNyAxNjkuNSAzOTUgMTY5LjVzMzkzLjQtNzUuOCAzOTUtMTY5LjVWNjA4LjRIMTE3eiIgZmlsbD0iIzFCOUJEQiIgLz48cGF0aCBkPSJNOTA3IDYwNy43YzAgOTkuNC0xNTQuOCAxODAtMzk1IDE4MHMtMzk1LTgwLjYtMzk1LTE4MCAxNTQuOC0xODAgMzk1LTE4MCAzOTUgODAuNSAzOTUgMTgweiIgZmlsbD0iI0ZGRkZGRiIgLz48cGF0aCBkPSJNMTE3IDQyOC40djE1OC41YzEuNSA5My43IDE1NS43IDE3OS41IDM5NSAxNzkuNXMzOTMuNC04NS44IDM5NS0xNzkuNVY0MjguNEgxMTd6IiBmaWxsPSIjMUI5QkRCIiAvPjxwYXRoIGQ9Ik05MDcgNDI3LjdjMCA5OS40LTE1NC44IDE4MC0zOTUgMTgwcy0zOTUtODAuNi0zOTUtMTgwIDE1NC44LTE4MCAzOTUtMTgwIDM5NSA4MC41IDM5NSAxODB6IiBmaWxsPSIjRkZGRkZGIiAvPjxwYXRoIGQ9Ik0xMTcgMjQ4LjR2MTU4LjVjMS41IDkzLjcgMTU1LjcgMTc5LjUgMzk1IDE3OS41czM5My40LTg1LjggMzk1LTE3OS41VjI0OC40SDExN3oiIGZpbGw9IiMxQjlCREIiIC8+PHBhdGggZD0iTTkwNyAyNDcuN2MwIDk5LjQtMTU0LjggMTgwLTM5NSAxODBzLTM5NS04MC42LTM5NS0xODAgMTU0LjgtMTgwIDM5NS0xODAgMzk1IDgwLjUgMzk1IDE4MHoiIGZpbGw9IiMzRUQ2RkYiIC8+PC9zdmc+;" vertex="1" parent="1">
          <mxGeometry x="40" y="280" width="70" height="70" as="geometry" />
        </mxCell>
        <mxCell id="dD6pzufTazgub8E4TdOT-16" value="" style="shape=image;aspect=fixed;image=data:image/svg+xml,PD94bWwgdmVyc2lvbj0iMS4wIiBlbmNvZGluZz0idXRmLTgiPz48IS0tIFVwbG9hZGVkIHRvOiBTVkcgUmVwbywgd3d3LnN2Z3JlcG8uY29tLCBHZW5lcmF0b3I6IFNWRyBSZXBvIE1peGVyIFRvb2xzIC0tPgo8c3ZnIHdpZHRoPSI4MDBweCIgaGVpZ2h0PSI4MDBweCIgdmlld0JveD0iMCAtMTggMjU2IDI1NiIgeG1sbnM9Imh0dHA6Ly93d3cudzMub3JnLzIwMDAvc3ZnIiBwcmVzZXJ2ZUFzcGVjdFJhdGlvPSJ4TWluWU1pbiBtZWV0Ij48cGF0aCBkPSJNMjQ1Ljk3IDE2OC45NDNjLTEzLjY2MiA3LjEyMS04NC40MzQgMzYuMjItOTkuNTAxIDQ0LjA3NS0xNS4wNjcgNy44NTYtMjMuNDM3IDcuNzgtMzUuMzQgMi4wOS0xMS45MDItNS42OS04Ny4yMTYtMzYuMTEyLTEwMC43ODMtNDIuNTk3QzMuNTY2IDE2OS4yNzEgMCAxNjYuNTM1IDAgMTYzLjk1MXYtMjUuODc2czk4LjA1LTIxLjM0NSAxMTMuODc5LTI3LjAyNGMxNS44MjgtNS42NzkgMjEuMzItNS44ODQgMzQuNzktLjk1IDEzLjQ3MiA0LjkzNiA5NC4wMTggMTkuNDY4IDEwNy4zMzEgMjQuMzQ0bC0uMDA2IDI1LjUxYy4wMDIgMi41NTgtMy4wNyA1LjM2NC0xMC4wMjQgOC45ODgiIGZpbGw9IiM5MTI2MjYiLz48cGF0aCBkPSJNMjQ1Ljk2NSAxNDMuMjJjLTEzLjY2MSA3LjExOC04NC40MzEgMzYuMjE4LTk5LjQ5OCA0NC4wNzItMTUuMDY2IDcuODU3LTIzLjQzNiA3Ljc4LTM1LjMzOCAyLjA5LTExLjkwMy01LjY4Ni04Ny4yMTQtMzYuMTEzLTEwMC43OC00Mi41OTQtMTMuNTY2LTYuNDg1LTEzLjg1LTEwLjk0OC0uNTI0LTE2LjE2NiAxMy4zMjYtNS4yMiA4OC4yMjQtMzQuNjA1IDEwNC4wNTUtNDAuMjg0IDE1LjgyOC01LjY3NyAyMS4zMTktNS44ODQgMzQuNzg5LS45NDggMTMuNDcxIDQuOTM0IDgzLjgxOSAzMi45MzUgOTcuMTMgMzcuODEgMTMuMzE2IDQuODgxIDEzLjgyNyA4LjkuMTY2IDE2LjAyIiBmaWxsPSIjQzYzMDJCIi8+PHBhdGggZD0iTTI0NS45NyAxMjcuMDc0Yy0xMy42NjIgNy4xMjItODQuNDM0IDM2LjIyLTk5LjUwMSA0NC4wNzgtMTUuMDY3IDcuODUzLTIzLjQzNyA3Ljc3Ny0zNS4zNCAyLjA4Ny0xMS45MDMtNS42ODctODcuMjE2LTM2LjExMi0xMDAuNzgzLTQyLjU5N0MzLjU2NiAxMjcuNDAyIDAgMTI0LjY3IDAgMTIyLjA4NVY5Ni4yMDZzOTguMDUtMjEuMzQ0IDExMy44NzktMjcuMDIzYzE1LjgyOC01LjY3OSAyMS4zMi01Ljg4NSAzNC43OS0uOTVDMTYyLjE0MiA3My4xNjggMjQyLjY4OCA4Ny42OTcgMjU2IDkyLjU3NGwtLjAwNiAyNS41MTNjLjAwMiAyLjU1Ny0zLjA3IDUuMzYzLTEwLjAyNCA4Ljk4NyIgZmlsbD0iIzkxMjYyNiIvPjxwYXRoIGQ9Ik0yNDUuOTY1IDEwMS4zNTFjLTEzLjY2MSA3LjEyLTg0LjQzMSAzNi4yMTgtOTkuNDk4IDQ0LjA3NS0xNS4wNjYgNy44NTQtMjMuNDM2IDcuNzc3LTM1LjMzOCAyLjA4Ny0xMS45MDMtNS42ODYtODcuMjE0LTM2LjExMi0xMDAuNzgtNDIuNTk0LTEzLjU2Ni02LjQ4My0xMy44NS0xMC45NDctLjUyNC0xNi4xNjdDMjMuMTUxIDgzLjUzNSA5OC4wNSA1NC4xNDggMTEzLjg4IDQ4LjQ3YzE1LjgyOC01LjY3OCAyMS4zMTktNS44ODQgMzQuNzg5LS45NDkgMTMuNDcxIDQuOTM0IDgzLjgxOSAzMi45MzMgOTcuMTMgMzcuODEgMTMuMzE2IDQuODggMTMuODI3IDguOS4xNjYgMTYuMDIiIGZpbGw9IiNDNjMwMkIiLz48cGF0aCBkPSJNMjQ1Ljk3IDgzLjY1M2MtMTMuNjYyIDcuMTItODQuNDM0IDM2LjIyLTk5LjUwMSA0NC4wNzgtMTUuMDY3IDcuODU0LTIzLjQzNyA3Ljc3Ny0zNS4zNCAyLjA4Ny0xMS45MDMtNS42ODctODcuMjE2LTM2LjExMy0xMDAuNzgzLTQyLjU5NUMzLjU2NiA4My45OCAwIDgxLjI0NyAwIDc4LjY2NXYtMjUuODhzOTguMDUtMjEuMzQzIDExMy44NzktMjcuMDIxYzE1LjgyOC01LjY4IDIxLjMyLTUuODg0IDM0Ljc5LS45NUMxNjIuMTQyIDI5Ljc0OSAyNDIuNjg4IDQ0LjI3OCAyNTYgNDkuMTU1bC0uMDA2IDI1LjUxMmMuMDAyIDIuNTU1LTMuMDcgNS4zNjEtMTAuMDI0IDguOTg2IiBmaWxsPSIjOTEyNjI2Ii8+PHBhdGggZD0iTTI0NS45NjUgNTcuOTNjLTEzLjY2MSA3LjEyLTg0LjQzMSAzNi4yMi05OS40OTggNDQuMDc0LTE1LjA2NiA3Ljg1NC0yMy40MzYgNy43NzctMzUuMzM4IDIuMDlDOTkuMjI3IDk4LjQwNCAyMy45MTUgNjcuOTggMTAuMzUgNjEuNDk3LTMuMjE3IDU1LjAxNS0zLjUgNTAuNTUgOS44MjUgNDUuMzMxIDIzLjE1MSA0MC4xMTMgOTguMDUgMTAuNzMgMTEzLjg4IDUuMDVjMTUuODI4LTUuNjc5IDIxLjMxOS01Ljg4MyAzNC43ODktLjk0OCAxMy40NzEgNC45MzUgODMuODE5IDMyLjkzNCA5Ny4xMyAzNy44MTEgMTMuMzE2IDQuODc2IDEzLjgyNyA4Ljg5Ny4xNjYgMTYuMDE3IiBmaWxsPSIjQzYzMDJCIi8+PHBhdGggZD0iTTE1OS4yODMgMzIuNzU3bC0yMi4wMSAyLjI4NS00LjkyNyAxMS44NTYtNy45NTgtMTMuMjMtMjUuNDE1LTIuMjg0IDE4Ljk2NC02LjgzOS01LjY5LTEwLjQ5OCAxNy43NTUgNi45NDQgMTYuNzM4LTUuNDgtNC41MjQgMTAuODU1IDE3LjA2NyA2LjM5MU0xMzEuMDMyIDkwLjI3NUw4OS45NTUgNzMuMjM4bDU4Ljg2LTkuMDM1LTE3Ljc4MyAyNi4wNzJNNzQuMDgyIDM5LjM0N2MxNy4zNzUgMCAzMS40NiA1LjQ2IDMxLjQ2IDEyLjE5NCAwIDYuNzM2LTE0LjA4NSAxMi4xOTUtMzEuNDYgMTIuMTk1cy0zMS40Ni01LjQ2LTMxLjQ2LTEyLjE5NWMwLTYuNzM0IDE0LjA4NS0xMi4xOTQgMzEuNDYtMTIuMTk0IiBmaWxsPSIjRkZGIi8+PHBhdGggZD0iTTE4NS4yOTUgMzUuOTk4bDM0LjgzNiAxMy43NjYtMzQuODA2IDEzLjc1My0uMDMtMjcuNTIiIGZpbGw9IiM2MjFCMUMiLz48cGF0aCBkPSJNMTQ2Ljc1NSA1MS4yNDNsMzguNTQtMTUuMjQ1LjAzIDI3LjUxOS0zLjc3OSAxLjQ3OC0zNC43OTEtMTMuNzUyIiBmaWxsPSIjOUEyOTI4Ii8+PC9zdmc+;" vertex="1" parent="1">
          <mxGeometry x="650" y="50" width="70" height="70" as="geometry" />
        </mxCell>
        <mxCell id="dD6pzufTazgub8E4TdOT-17" value="" style="shape=image;aspect=fixed;image=data:image/svg+xml,PD94bWwgdmVyc2lvbj0iMS4wIiBlbmNvZGluZz0idXRmLTgiPz48IS0tIFVwbG9hZGVkIHRvOiBTVkcgUmVwbywgd3d3LnN2Z3JlcG8uY29tLCBHZW5lcmF0b3I6IFNWRyBSZXBvIE1peGVyIFRvb2xzIC0tPgo8c3ZnIHdpZHRoPSI4MDBweCIgaGVpZ2h0PSI4MDBweCIgdmlld0JveD0iLTkuMDkgMCA3MCA3MCIgeG1sbnM6ZGM9Imh0dHA6Ly9wdXJsLm9yZy9kYy9lbGVtZW50cy8xLjEvIiB4bWxuczpjYz0iaHR0cDovL2NyZWF0aXZlY29tbW9ucy5vcmcvbnMjIiB4bWxuczpyZGY9Imh0dHA6Ly93d3cudzMub3JnLzE5OTkvMDIvMjItcmRmLXN5bnRheC1ucyMiIHhtbG5zPSJodHRwOi8vd3d3LnczLm9yZy8yMDAwL3N2ZyI+CiAgICA8bWV0YWRhdGE+CiAgICAgICAgPHJkZjpSREY+CiAgICAgICAgICAgIDxjYzpXb3JrPgogICAgICAgICAgICAgICAgPGRjOnN1YmplY3Q+CiAgICAgICAgICAgICAgICAgICAgTmV0d29yawogICAgICAgICAgICAgICAgPC9kYzpzdWJqZWN0PgogICAgICAgICAgICAgICAgPGRjOmlkZW50aWZpZXI+CiAgICAgICAgICAgICAgICAgICAgbG9hZC1iYWxhbmNlci1nZW5lcmljCiAgICAgICAgICAgICAgICA8L2RjOmlkZW50aWZpZXI+CiAgICAgICAgICAgICAgICA8ZGM6dGl0bGU+CiAgICAgICAgICAgICAgICAgICAgTG9hZCBCYWxhbmNlciAoR2VuZXJpYykKICAgICAgICAgICAgICAgIDwvZGM6dGl0bGU+CiAgICAgICAgICAgICAgICA8ZGM6Zm9ybWF0PgogICAgICAgICAgICAgICAgICAgIGltYWdlL3N2Zyt4bWwKICAgICAgICAgICAgICAgIDwvZGM6Zm9ybWF0PgogICAgICAgICAgICAgICAgPGRjOnB1Ymxpc2hlcj4KICAgICAgICAgICAgICAgICAgICBBbWlkbyBMaW1pdGVkCiAgICAgICAgICAgICAgICA8L2RjOnB1Ymxpc2hlcj4KICAgICAgICAgICAgICAgIDxkYzpjcmVhdG9yPgogICAgICAgICAgICAgICAgICAgIFJpY2hhcmQgU2xhdGVyCiAgICAgICAgICAgICAgICA8L2RjOmNyZWF0b3I+CiAgICAgICAgICAgICAgICA8ZGM6dHlwZSByZGY6cmVzb3VyY2U9Imh0dHA6Ly9wdXJsLm9yZy9kYy9kY21pdHlwZS9TdGlsbEltYWdlIi8+CiAgICAgICAgICAgIDwvY2M6V29yaz4KICAgICAgICA8L3JkZjpSREY+CiAgICA8L21ldGFkYXRhPgogICAgPHBhdGggZD0ibSAtMTIwLjU3MDAzLDU3Ni42OTcyNiBjIC00LjY4Nzc2LC00LjcwNTkgLTUuMzc4OTEsLTUuNDUzMDUgLTUuNDU4NjQsLTUuOTAwODggLTAuMjc3NTEsLTEuNTU4NzIgMS4wMzM1OCwtMi44MDk3NSAyLjYzMDY2LC0yLjUxMDE0IDAuNDM0MjcsMC4wODE1IDAuOTU1MDcsMC41MzQ0NCAzLjM2MzI5LDIuOTI1MjYgbCAyLjg0OTQ1LDIuODI4ODYgMCwtMTYuMzk3MDIgMCwtMTYuMzk3MDEgLTguMTAwMTQsOC4wOTg5MSAtOC4xMDAxMyw4LjA5ODkxIDMuODc4ODYsMC4wNjg2IGMgMy43OTk1NiwwLjA2NzIgMy44ODk3MiwwLjA3NTQgNC40MDk4NywwLjM5ODczIDAuNTU5MDEsMC4zNDc1IDEuMDQxNjUsMS4xODA0NiAxLjA0MTY1LDEuNzk3NyAwLDAuNjE3MjUgLTAuNDgyNjQsMS40NTAyMSAtMS4wNDE2NSwxLjc5NzcxIGwgLTAuNTMxLDAuMzMwMDkgLTcuNTUwMjQsMCAtNy41NTAyNCwwIDAsLTcuNjQzMiBjIDAsLTcuNTA1NDggMC4wMDUsLTcuNjUwMDMgMC4yODMwMywtOC4wMjIyMyAwLjUzMywtMC43MTM3NiAwLjk3ODYyLC0wLjk0NTEgMS44MjA1MSwtMC45NDUxIDAuNTg2MjgsMCAwLjg4NTU4LDAuMDc1OCAxLjIwODUsMC4zMDYxNyAwLjgzNTA0LDAuNTk1NjQgMC44NzQ5MSwwLjgyOTY5IDAuODc0OTEsNS4xMzY2NiBsIDAsMy44OTEyOCA5LjY3ODAzLC05LjY3NzMgOS42NzgwNCwtOS42NzczMSAwLC01LjA1MDE3IDAsLTUuMDUwMTggLTAuNTgzNDMsLTAuMjUxODggYyAtMS4xMzA4MiwtMC40ODgyIC0yLjQxMTI2LC0xLjYzMjY2IC0zLjA4NjIsLTIuNzU4NDYgLTAuOTEyOTUsLTEuNTIyOCAtMS4xMzIzNSwtMy44MTIyIC0wLjUyOTExLC01LjUyMTMyIDEuMzYyMTksLTMuODU5NDYgNS44ODc1MywtNS42MzAwOSA5LjQ3MTgxLC0zLjcwNjA0IDAuOTE0MDgsMC40OTA2NyAyLjMxMDU5LDEuODkzMTIgMi43NTE0OCwyLjc2MzE5IDEuNjg2NjIsMy4zMjgzOCAwLjQ1MjgsNy4yODA3NyAtMi44MDc2OSw4Ljk5NDExIGwgLTAuOTYxMjcsMC41MDUxMyAwLDUuMDM3OCAwLDUuMDM3ODEgOS44ODM5NSw5Ljg4MzIzIDkuODgzOTUsOS44ODMyNCAwLC00LjA5OTI3IGMgMCwtMy45MjA5NiAwLjAxMjYsLTQuMTIxNzYgMC4yOTA3NCwtNC42MTY1NiAwLjU3ODI1LC0xLjAyODg1IDEuOTU4MTUsLTEuNDA2MSAyLjg3NzM4LC0wLjc4NjYzIDAuMjU0NzYsMC4xNzE2OCAwLjYwNDE3LDAuNTIxMzUgMC43NzY0OCwwLjc3NzA0IGwgMC4zMTMyOSwwLjQ2NDg5IC0wLjAzNTUsNy41NjI1NSAtMC4wMzU1LDcuNTYyNTUgLTcuMDY5NzcsMC4wNDAxIGMgLTMuODg4MzcsMC4wMjIxIC03LjMzNzEyLDAuMDAyIC03LjY2Mzg5LC0wLjA0NDMgLTAuNDExNDYsLTAuMDU4NSAtMC43NTkyNSwtMC4yMzM2NCAtMS4xMzEyMywtMC41Njk3IC0xLjE5MTMzLC0xLjA3NjMxIC0wLjk1NTc3LC0yLjUyMDggMC41OTMyMSwtMy42Mzc1IDAuMDE4NywtMC4wMTM0IDEuNzE3NjUsLTAuMDU5OCAzLjc3NTU0LC0wLjEwMjk1IGwgMy43NDE2MSwtMC4wNzg1IC04LjEwMDE2LC04LjA5ODkyIC04LjEwMDE2LC04LjA5ODkxIDAsMTYuMzM0MjUgMCwxNi4zMzQyNSAyLjcxMTIyLC0yLjcwMzM0IGMgMS40OTExNywtMS40ODY4NCAyLjg4NTEyLC0yLjc2ODA4IDMuMDk3NjcsLTIuODQ3MjEgMC45MjQ3NiwtMC4zNDQyOCAxLjk2Nzg5LC0wLjAwOCAyLjUzMDY5LDAuODE3IDAuMzgwMTEsMC41NTY4NiAwLjQyMzUsMS42ODc1IDAuMDg0NCwyLjIwMDI3IC0wLjI0MjI0LDAuMzY2MzYgLTEwLjUwMjM3LDEwLjcwMzg0IC0xMC42MjM3NCwxMC43MDM4NCAtMC4wNDAzLDAgLTIuNDg4NTgsLTIuNDI0NjUgLTUuNDQwNjMsLTUuMzg4MTIgeiIgZmlsbD0iIzAwYmNmMiIgdHJhbnNmb3JtPSJ0cmFuc2xhdGUoMTQwLjcyOCAtNTEyLjA4NSkiLz4KPC9zdmc+;" vertex="1" parent="1">
          <mxGeometry x="265" y="370" width="40" height="40" as="geometry" />
        </mxCell>
        <mxCell id="dD6pzufTazgub8E4TdOT-18" value="" style="shape=image;aspect=fixed;image=data:image/svg+xml,PD94bWwgdmVyc2lvbj0iMS4wIiBlbmNvZGluZz0idXRmLTgiPz4NCjwhLS0gVXBsb2FkZWQgdG86IFNWRyBSZXBvLCB3d3cuc3ZncmVwby5jb20sIEdlbmVyYXRvcjogU1ZHIFJlcG8gTWl4ZXIgVG9vbHMgLS0+DQo8c3ZnIHdpZHRoPSI4MDBweCIgaGVpZ2h0PSI4MDBweCIgdmlld0JveD0iMCAtMzIuOTcgMzgwLjY2OCAzODAuNjY4IiB4bWxucz0iaHR0cDovL3d3dy53My5vcmcvMjAwMC9zdmciPjxkZWZzPjxzdHlsZT4uYXtmaWxsOiNjZmNmY2Y7fS5ie2ZpbGw6IzIxMTcxNTt9LmN7ZmlsbDojZmZmZmZmO308L3N0eWxlPjwvZGVmcz48cGF0aCBjbGFzcz0iYSIgZD0iTTIzNy44NTYsMjE3LjIwNnY5NS4xYy02Ljg3NCwwLTg0LjU3Ni0uMDM0LTk0LjA0Mi4wMTRWMjE3LjIwNiIvPjxwYXRoIGNsYXNzPSJiIiBkPSJNMjM1LjQ1NiwyMTcuMjA2djk1LjFsMi40LTIuNC0zMi4yMDktLjAxcS0yMy42LDAtNDcuMjA5LDBjLTQuODc0LDAtOS43NDksMC0xNC42MjQuMDIxbDIuNCwyLjRWMjE3LjIwNmMwLTMuMDg5LTQuOC0zLjA5NC00LjgsMFYzMTIuMzJhMi40MzQsMi40MzQsMCwwLDAsMi40LDIuNGMxMS4zNTMtLjA1NywyMi43MDgtLjAyNiwzNC4wNjEtLjAyNnEyMy4zNDQsMCw0Ni42ODkuMDA4bDEzLjI5MiwwYTIuNDM0LDIuNDM0LDAsMCwwLDIuNC0yLjR2LTk1LjFjMC0zLjA4OS00LjgtMy4wOTQtNC44LDBaIi8+PHBhdGggY2xhc3M9ImIiIGQ9Ik0xNTQuMjI1LDMwMy4zODFoNzMuMjJjMy4wODgsMCwzLjA5My00LjgsMC00LjhoLTczLjIyYy0zLjA4OCwwLTMuMDkzLDQuOCwwLDQuOFoiLz48cGF0aCBjbGFzcz0iYiIgZD0iTTM4MC42LDIxNy4xOTFWMjUuMzQ1YzAtNy40MzIuMTYzLTE0Ljg4NCwwLTIyLjMxNSwwLS4yMSwwLS40MiwwLS42M0EyLjQzNSwyLjQzNSwwLDAsMCwzNzguMiwwSDIuNEEyLjQzNSwyLjQzNSwwLDAsMCwwLDIuNFYyMTcuMjA2YTIuNDM1LDIuNDM1LDAsMCwwLDIuNCwyLjRIMjMyLjQ3bDQ2LjQ1NiwwLDQxLjEzMSwwLDMyLjk0LDAsMjEuODgyLDBIMzc4LjJjMy4wODgsMCwzLjA5NC00LjgsMC00LjhsLTE4Ljc3LDAtMzAuNTIyLDAtMzkuNDA5LDAtNDUuNDI4LDBIMi40bDIuNCwyLjRWMi40TDIuNCw0LjhIMzc4LjJsLTIuNC0yLjRWMjE3LjE5MUMzNzUuOCwyMjAuMjgsMzgwLjYsMjIwLjI4NSwzODAuNiwyMTcuMTkxWiIvPjxwYXRoIGNsYXNzPSJiIiBkPSJNMzc4LjIsMjE3LjE5MVYyLjRIMi40VjIxNy4yMDZDNDEuMDgyLDIxNy4yMDYsMzM3LjQzNiwyMTcuMjA2LDM3OC4yLDIxNy4xOTFaIi8+PHBhdGggY2xhc3M9ImMiIGQ9Ik0zNjYuODY0LDIwNS44NTNWMTMuNzM5SDEzLjc0NlYyMDUuODY3QzUyLjQyNywyMDUuODY3LDMyNi4xMDUsMjA1Ljg2NywzNjYuODY0LDIwNS44NTNaIi8+PHBhdGggY2xhc3M9ImMiIGQ9Ik0zNjkuMjY0LDIwNS44NTNWMzMuOTA5YzAtNi41MTUuMTMyLTEzLjA0NiwwLTE5LjU2LDAtLjIsMC0uNDA3LDAtLjYxYTIuNDM0LDIuNDM0LDAsMCwwLTIuNC0yLjRIMTMuNzQ2YTIuNDM0LDIuNDM0LDAsMCwwLTIuNCwyLjRWMjA1Ljg2N2EyLjQzNCwyLjQzNCwwLDAsMCwyLjQsMi40SDE4My44NjhsNDUuNjA2LDBoNDMuMzc5bDM4LjU0LDAsMzEuMjA5LDAsMjAuOTIsMGgzLjM0MmMzLjA4OSwwLDMuMDk0LTQuOCwwLTQuOHEtOS4wNzYsMC0xOC4xNTQsMGwtMjguODU0LDAtMzYuOTQ1LDAtNDIuNDI4LDBIMTMuNzQ2bDIuNCwyLjRWMTMuNzM5bC0yLjQsMi40SDM2Ni44NjRsLTIuNC0yLjRWMjA1Ljg1M0MzNjQuNDY0LDIwOC45NDEsMzY5LjI2NCwyMDguOTQ2LDM2OS4yNjQsMjA1Ljg1M1oiLz48L3N2Zz4=;" vertex="1" parent="1">
          <mxGeometry x="240" y="280" width="80" height="80" as="geometry" />
        </mxCell>
        <mxCell id="dD6pzufTazgub8E4TdOT-19" value="" style="shape=image;aspect=fixed;image=data:image/svg+xml,PD94bWwgdmVyc2lvbj0iMS4wIiBlbmNvZGluZz0idXRmLTgiPz4NCjwhLS0gVXBsb2FkZWQgdG86IFNWRyBSZXBvLCB3d3cuc3ZncmVwby5jb20sIEdlbmVyYXRvcjogU1ZHIFJlcG8gTWl4ZXIgVG9vbHMgLS0+DQo8c3ZnIHdpZHRoPSI4MDBweCIgaGVpZ2h0PSI4MDBweCIgdmlld0JveD0iMCAwIDEwMjQgMTAyNCIgY2xhc3M9Imljb24iICB2ZXJzaW9uPSIxLjEiIHhtbG5zPSJodHRwOi8vd3d3LnczLm9yZy8yMDAwL3N2ZyI+PHBhdGggZD0iTTQ0Ny41IDk2MC4zbC0zMjEtMTEwdi02NDJsMzIxIDgyeiIgZmlsbD0iIzM3QkJFRiIgLz48cGF0aCBkPSJNNDQ3LjUgOTYwLjNsNDUwLTI0MHYtNjAwbC00NTAgMTcweiIgZmlsbD0iIzI0ODFCQSIgLz48cGF0aCBkPSJNMTI2LjUgMjA4LjNsMzIxIDgyIDQ1MC0xNzAtMzQ0LjQtNTYuNnoiIGZpbGw9IiMzRUQ2RkYiIC8+PHBhdGggZD0iTTQwMC4zIDM0OC45djgwbC0yMzktNjB2LTgwbDIzOSA2MHogbS0yMzkgNDguM2wyMzkgNjB2LTEwbC0yMzktNjB2MTB6IG0wIDIzbDIzOSA2MHYtMTBsLTIzOS02MHYxMHogbTAgMjNsMjM5IDYwdi0xMGwtMjM5LTYwdjEweiIgZmlsbD0iI0Q0RjdGRiIgLz48cGF0aCBkPSJNMTc1LjcgMzA4LjR2MzRsMjEwLjIgNTN2LTM0ek0xNzUuNyAzNjMuNGwyMTAuMiA1M3YtMTMuM2wtMjEwLjItNTN6IiBmaWxsPSIjMTEzQjQyIiAvPjxwYXRoIGQ9Ik00NDcuNSA4OTQuMXYtNS4ybC0xNzQuNC01NS4zLTEuMiA0Ljh6TTI3MS45IDgwOS4zTDQ0Ny41IDg2NHYtNS4zbC0xNzQuNC01NC4zek0yNzEuOSA3ODAuMWwxNzUuNiA1My43di01LjJsLTE3NC40LTUzLjR6TTQ0Ny41IDcwNy45bC0xNzQuNC00OS4zLTEuMiA0LjggMTc1LjYgNDkuN3pNMjcxLjkgNjkyLjZsMTc1LjYgNTAuN3YtNS4ybC0xNzQuNC01MC40ek0yNzEuOSA3NTAuOWwxNzUuNiA1Mi43di01LjJsLTE3NC40LTUyLjN6TTI3MS45IDcyMS44bDE3NS42IDUxLjd2LTUuM2wtMTc0LjQtNTEuM3oiIGZpbGw9IiMwMDcxQkMiIC8+PHBhdGggZD0iTTM3OS41IDU0MC44Yy05LjQtMy40LTE3IDEuNi0xNyAxMS4yczcuNiAyMC4xIDE3IDIzLjIgMTctMS45IDE3LTExLjItNy42LTE5LjgtMTctMjMuMnpNMzc5LjUgNjAzLjZjLTMuOS0xLjItNyAxLTcgNC45czMuMSA4LjEgNyA5LjMgNy0xIDctNC45YzAtMy45LTMuMS04LTctOS4zeiIgZmlsbD0iI0ZGRkZGRiIgLz48L3N2Zz4=;" vertex="1" parent="1">
          <mxGeometry x="215" y="430" width="70" height="70" as="geometry" />
        </mxCell>
        <mxCell id="dD6pzufTazgub8E4TdOT-20" value="" style="shape=image;aspect=fixed;image=data:image/svg+xml,PD94bWwgdmVyc2lvbj0iMS4wIiBlbmNvZGluZz0idXRmLTgiPz4NCjwhLS0gVXBsb2FkZWQgdG86IFNWRyBSZXBvLCB3d3cuc3ZncmVwby5jb20sIEdlbmVyYXRvcjogU1ZHIFJlcG8gTWl4ZXIgVG9vbHMgLS0+DQo8c3ZnIHdpZHRoPSI4MDBweCIgaGVpZ2h0PSI4MDBweCIgdmlld0JveD0iMCAwIDEwMjQgMTAyNCIgY2xhc3M9Imljb24iICB2ZXJzaW9uPSIxLjEiIHhtbG5zPSJodHRwOi8vd3d3LnczLm9yZy8yMDAwL3N2ZyI+PHBhdGggZD0iTTQ0Ny41IDk2MC4zbC0zMjEtMTEwdi02NDJsMzIxIDgyeiIgZmlsbD0iIzM3QkJFRiIgLz48cGF0aCBkPSJNNDQ3LjUgOTYwLjNsNDUwLTI0MHYtNjAwbC00NTAgMTcweiIgZmlsbD0iIzI0ODFCQSIgLz48cGF0aCBkPSJNMTI2LjUgMjA4LjNsMzIxIDgyIDQ1MC0xNzAtMzQ0LjQtNTYuNnoiIGZpbGw9IiMzRUQ2RkYiIC8+PHBhdGggZD0iTTQwMC4zIDM0OC45djgwbC0yMzktNjB2LTgwbDIzOSA2MHogbS0yMzkgNDguM2wyMzkgNjB2LTEwbC0yMzktNjB2MTB6IG0wIDIzbDIzOSA2MHYtMTBsLTIzOS02MHYxMHogbTAgMjNsMjM5IDYwdi0xMGwtMjM5LTYwdjEweiIgZmlsbD0iI0Q0RjdGRiIgLz48cGF0aCBkPSJNMTc1LjcgMzA4LjR2MzRsMjEwLjIgNTN2LTM0ek0xNzUuNyAzNjMuNGwyMTAuMiA1M3YtMTMuM2wtMjEwLjItNTN6IiBmaWxsPSIjMTEzQjQyIiAvPjxwYXRoIGQ9Ik00NDcuNSA4OTQuMXYtNS4ybC0xNzQuNC01NS4zLTEuMiA0Ljh6TTI3MS45IDgwOS4zTDQ0Ny41IDg2NHYtNS4zbC0xNzQuNC01NC4zek0yNzEuOSA3ODAuMWwxNzUuNiA1My43di01LjJsLTE3NC40LTUzLjR6TTQ0Ny41IDcwNy45bC0xNzQuNC00OS4zLTEuMiA0LjggMTc1LjYgNDkuN3pNMjcxLjkgNjkyLjZsMTc1LjYgNTAuN3YtNS4ybC0xNzQuNC01MC40ek0yNzEuOSA3NTAuOWwxNzUuNiA1Mi43di01LjJsLTE3NC40LTUyLjN6TTI3MS45IDcyMS44bDE3NS42IDUxLjd2LTUuM2wtMTc0LjQtNTEuM3oiIGZpbGw9IiMwMDcxQkMiIC8+PHBhdGggZD0iTTM3OS41IDU0MC44Yy05LjQtMy40LTE3IDEuNi0xNyAxMS4yczcuNiAyMC4xIDE3IDIzLjIgMTctMS45IDE3LTExLjItNy42LTE5LjgtMTctMjMuMnpNMzc5LjUgNjAzLjZjLTMuOS0xLjItNyAxLTcgNC45czMuMSA4LjEgNyA5LjMgNy0xIDctNC45YzAtMy45LTMuMS04LTctOS4zeiIgZmlsbD0iI0ZGRkZGRiIgLz48L3N2Zz4=;" vertex="1" parent="1">
          <mxGeometry x="245" y="440" width="70" height="70" as="geometry" />
        </mxCell>
        <mxCell id="dD6pzufTazgub8E4TdOT-21" value="" style="shape=image;aspect=fixed;image=data:image/svg+xml,PD94bWwgdmVyc2lvbj0iMS4wIiBlbmNvZGluZz0idXRmLTgiPz4NCjwhLS0gVXBsb2FkZWQgdG86IFNWRyBSZXBvLCB3d3cuc3ZncmVwby5jb20sIEdlbmVyYXRvcjogU1ZHIFJlcG8gTWl4ZXIgVG9vbHMgLS0+DQo8c3ZnIHdpZHRoPSI4MDBweCIgaGVpZ2h0PSI4MDBweCIgdmlld0JveD0iMCAwIDEwMjQgMTAyNCIgY2xhc3M9Imljb24iICB2ZXJzaW9uPSIxLjEiIHhtbG5zPSJodHRwOi8vd3d3LnczLm9yZy8yMDAwL3N2ZyI+PHBhdGggZD0iTTQ0Ny41IDk2MC4zbC0zMjEtMTEwdi02NDJsMzIxIDgyeiIgZmlsbD0iIzM3QkJFRiIgLz48cGF0aCBkPSJNNDQ3LjUgOTYwLjNsNDUwLTI0MHYtNjAwbC00NTAgMTcweiIgZmlsbD0iIzI0ODFCQSIgLz48cGF0aCBkPSJNMTI2LjUgMjA4LjNsMzIxIDgyIDQ1MC0xNzAtMzQ0LjQtNTYuNnoiIGZpbGw9IiMzRUQ2RkYiIC8+PHBhdGggZD0iTTQwMC4zIDM0OC45djgwbC0yMzktNjB2LTgwbDIzOSA2MHogbS0yMzkgNDguM2wyMzkgNjB2LTEwbC0yMzktNjB2MTB6IG0wIDIzbDIzOSA2MHYtMTBsLTIzOS02MHYxMHogbTAgMjNsMjM5IDYwdi0xMGwtMjM5LTYwdjEweiIgZmlsbD0iI0Q0RjdGRiIgLz48cGF0aCBkPSJNMTc1LjcgMzA4LjR2MzRsMjEwLjIgNTN2LTM0ek0xNzUuNyAzNjMuNGwyMTAuMiA1M3YtMTMuM2wtMjEwLjItNTN6IiBmaWxsPSIjMTEzQjQyIiAvPjxwYXRoIGQ9Ik00NDcuNSA4OTQuMXYtNS4ybC0xNzQuNC01NS4zLTEuMiA0Ljh6TTI3MS45IDgwOS4zTDQ0Ny41IDg2NHYtNS4zbC0xNzQuNC01NC4zek0yNzEuOSA3ODAuMWwxNzUuNiA1My43di01LjJsLTE3NC40LTUzLjR6TTQ0Ny41IDcwNy45bC0xNzQuNC00OS4zLTEuMiA0LjggMTc1LjYgNDkuN3pNMjcxLjkgNjkyLjZsMTc1LjYgNTAuN3YtNS4ybC0xNzQuNC01MC40ek0yNzEuOSA3NTAuOWwxNzUuNiA1Mi43di01LjJsLTE3NC40LTUyLjN6TTI3MS45IDcyMS44bDE3NS42IDUxLjd2LTUuM2wtMTc0LjQtNTEuM3oiIGZpbGw9IiMwMDcxQkMiIC8+PHBhdGggZD0iTTM3OS41IDU0MC44Yy05LjQtMy40LTE3IDEuNi0xNyAxMS4yczcuNiAyMC4xIDE3IDIzLjIgMTctMS45IDE3LTExLjItNy42LTE5LjgtMTctMjMuMnpNMzc5LjUgNjAzLjZjLTMuOS0xLjItNyAxLTcgNC45czMuMSA4LjEgNyA5LjMgNy0xIDctNC45YzAtMy45LTMuMS04LTctOS4zeiIgZmlsbD0iI0ZGRkZGRiIgLz48L3N2Zz4=;" vertex="1" parent="1">
          <mxGeometry x="275" y="450" width="70" height="70" as="geometry" />
        </mxCell>
        <mxCell id="dD6pzufTazgub8E4TdOT-22" value="" style="shape=image;aspect=fixed;image=data:image/svg+xml,PD94bWwgdmVyc2lvbj0iMS4wIiBlbmNvZGluZz0idXRmLTgiPz48IS0tIFVwbG9hZGVkIHRvOiBTVkcgUmVwbywgd3d3LnN2Z3JlcG8uY29tLCBHZW5lcmF0b3I6IFNWRyBSZXBvIE1peGVyIFRvb2xzIC0tPgo8c3ZnIHdpZHRoPSI4MDBweCIgaGVpZ2h0PSI4MDBweCIgdmlld0JveD0iMCAtMTggMjU2IDI1NiIgeG1sbnM9Imh0dHA6Ly93d3cudzMub3JnLzIwMDAvc3ZnIiBwcmVzZXJ2ZUFzcGVjdFJhdGlvPSJ4TWluWU1pbiBtZWV0Ij48cGF0aCBkPSJNMjQ1Ljk3IDE2OC45NDNjLTEzLjY2MiA3LjEyMS04NC40MzQgMzYuMjItOTkuNTAxIDQ0LjA3NS0xNS4wNjcgNy44NTYtMjMuNDM3IDcuNzgtMzUuMzQgMi4wOS0xMS45MDItNS42OS04Ny4yMTYtMzYuMTEyLTEwMC43ODMtNDIuNTk3QzMuNTY2IDE2OS4yNzEgMCAxNjYuNTM1IDAgMTYzLjk1MXYtMjUuODc2czk4LjA1LTIxLjM0NSAxMTMuODc5LTI3LjAyNGMxNS44MjgtNS42NzkgMjEuMzItNS44ODQgMzQuNzktLjk1IDEzLjQ3MiA0LjkzNiA5NC4wMTggMTkuNDY4IDEwNy4zMzEgMjQuMzQ0bC0uMDA2IDI1LjUxYy4wMDIgMi41NTgtMy4wNyA1LjM2NC0xMC4wMjQgOC45ODgiIGZpbGw9IiM5MTI2MjYiLz48cGF0aCBkPSJNMjQ1Ljk2NSAxNDMuMjJjLTEzLjY2MSA3LjExOC04NC40MzEgMzYuMjE4LTk5LjQ5OCA0NC4wNzItMTUuMDY2IDcuODU3LTIzLjQzNiA3Ljc4LTM1LjMzOCAyLjA5LTExLjkwMy01LjY4Ni04Ny4yMTQtMzYuMTEzLTEwMC43OC00Mi41OTQtMTMuNTY2LTYuNDg1LTEzLjg1LTEwLjk0OC0uNTI0LTE2LjE2NiAxMy4zMjYtNS4yMiA4OC4yMjQtMzQuNjA1IDEwNC4wNTUtNDAuMjg0IDE1LjgyOC01LjY3NyAyMS4zMTktNS44ODQgMzQuNzg5LS45NDggMTMuNDcxIDQuOTM0IDgzLjgxOSAzMi45MzUgOTcuMTMgMzcuODEgMTMuMzE2IDQuODgxIDEzLjgyNyA4LjkuMTY2IDE2LjAyIiBmaWxsPSIjQzYzMDJCIi8+PHBhdGggZD0iTTI0NS45NyAxMjcuMDc0Yy0xMy42NjIgNy4xMjItODQuNDM0IDM2LjIyLTk5LjUwMSA0NC4wNzgtMTUuMDY3IDcuODUzLTIzLjQzNyA3Ljc3Ny0zNS4zNCAyLjA4Ny0xMS45MDMtNS42ODctODcuMjE2LTM2LjExMi0xMDAuNzgzLTQyLjU5N0MzLjU2NiAxMjcuNDAyIDAgMTI0LjY3IDAgMTIyLjA4NVY5Ni4yMDZzOTguMDUtMjEuMzQ0IDExMy44NzktMjcuMDIzYzE1LjgyOC01LjY3OSAyMS4zMi01Ljg4NSAzNC43OS0uOTVDMTYyLjE0MiA3My4xNjggMjQyLjY4OCA4Ny42OTcgMjU2IDkyLjU3NGwtLjAwNiAyNS41MTNjLjAwMiAyLjU1Ny0zLjA3IDUuMzYzLTEwLjAyNCA4Ljk4NyIgZmlsbD0iIzkxMjYyNiIvPjxwYXRoIGQ9Ik0yNDUuOTY1IDEwMS4zNTFjLTEzLjY2MSA3LjEyLTg0LjQzMSAzNi4yMTgtOTkuNDk4IDQ0LjA3NS0xNS4wNjYgNy44NTQtMjMuNDM2IDcuNzc3LTM1LjMzOCAyLjA4Ny0xMS45MDMtNS42ODYtODcuMjE0LTM2LjExMi0xMDAuNzgtNDIuNTk0LTEzLjU2Ni02LjQ4My0xMy44NS0xMC45NDctLjUyNC0xNi4xNjdDMjMuMTUxIDgzLjUzNSA5OC4wNSA1NC4xNDggMTEzLjg4IDQ4LjQ3YzE1LjgyOC01LjY3OCAyMS4zMTktNS44ODQgMzQuNzg5LS45NDkgMTMuNDcxIDQuOTM0IDgzLjgxOSAzMi45MzMgOTcuMTMgMzcuODEgMTMuMzE2IDQuODggMTMuODI3IDguOS4xNjYgMTYuMDIiIGZpbGw9IiNDNjMwMkIiLz48cGF0aCBkPSJNMjQ1Ljk3IDgzLjY1M2MtMTMuNjYyIDcuMTItODQuNDM0IDM2LjIyLTk5LjUwMSA0NC4wNzgtMTUuMDY3IDcuODU0LTIzLjQzNyA3Ljc3Ny0zNS4zNCAyLjA4Ny0xMS45MDMtNS42ODctODcuMjE2LTM2LjExMy0xMDAuNzgzLTQyLjU5NUMzLjU2NiA4My45OCAwIDgxLjI0NyAwIDc4LjY2NXYtMjUuODhzOTguMDUtMjEuMzQzIDExMy44NzktMjcuMDIxYzE1LjgyOC01LjY4IDIxLjMyLTUuODg0IDM0Ljc5LS45NUMxNjIuMTQyIDI5Ljc0OSAyNDIuNjg4IDQ0LjI3OCAyNTYgNDkuMTU1bC0uMDA2IDI1LjUxMmMuMDAyIDIuNTU1LTMuMDcgNS4zNjEtMTAuMDI0IDguOTg2IiBmaWxsPSIjOTEyNjI2Ii8+PHBhdGggZD0iTTI0NS45NjUgNTcuOTNjLTEzLjY2MSA3LjEyLTg0LjQzMSAzNi4yMi05OS40OTggNDQuMDc0LTE1LjA2NiA3Ljg1NC0yMy40MzYgNy43NzctMzUuMzM4IDIuMDlDOTkuMjI3IDk4LjQwNCAyMy45MTUgNjcuOTggMTAuMzUgNjEuNDk3LTMuMjE3IDU1LjAxNS0zLjUgNTAuNTUgOS44MjUgNDUuMzMxIDIzLjE1MSA0MC4xMTMgOTguMDUgMTAuNzMgMTEzLjg4IDUuMDVjMTUuODI4LTUuNjc5IDIxLjMxOS01Ljg4MyAzNC43ODktLjk0OCAxMy40NzEgNC45MzUgODMuODE5IDMyLjkzNCA5Ny4xMyAzNy44MTEgMTMuMzE2IDQuODc2IDEzLjgyNyA4Ljg5Ny4xNjYgMTYuMDE3IiBmaWxsPSIjQzYzMDJCIi8+PHBhdGggZD0iTTE1OS4yODMgMzIuNzU3bC0yMi4wMSAyLjI4NS00LjkyNyAxMS44NTYtNy45NTgtMTMuMjMtMjUuNDE1LTIuMjg0IDE4Ljk2NC02LjgzOS01LjY5LTEwLjQ5OCAxNy43NTUgNi45NDQgMTYuNzM4LTUuNDgtNC41MjQgMTAuODU1IDE3LjA2NyA2LjM5MU0xMzEuMDMyIDkwLjI3NUw4OS45NTUgNzMuMjM4bDU4Ljg2LTkuMDM1LTE3Ljc4MyAyNi4wNzJNNzQuMDgyIDM5LjM0N2MxNy4zNzUgMCAzMS40NiA1LjQ2IDMxLjQ2IDEyLjE5NCAwIDYuNzM2LTE0LjA4NSAxMi4xOTUtMzEuNDYgMTIuMTk1cy0zMS40Ni01LjQ2LTMxLjQ2LTEyLjE5NWMwLTYuNzM0IDE0LjA4NS0xMi4xOTQgMzEuNDYtMTIuMTk0IiBmaWxsPSIjRkZGIi8+PHBhdGggZD0iTTE4NS4yOTUgMzUuOTk4bDM0LjgzNiAxMy43NjYtMzQuODA2IDEzLjc1My0uMDMtMjcuNTIiIGZpbGw9IiM2MjFCMUMiLz48cGF0aCBkPSJNMTQ2Ljc1NSA1MS4yNDNsMzguNTQtMTUuMjQ1LjAzIDI3LjUxOS0zLjc3OSAxLjQ3OC0zNC43OTEtMTMuNzUyIiBmaWxsPSIjOUEyOTI4Ii8+PC9zdmc+;" vertex="1" parent="1">
          <mxGeometry x="120" y="560" width="80" height="80" as="geometry" />
        </mxCell>
        <mxCell id="dD6pzufTazgub8E4TdOT-23" value="" style="shape=image;aspect=fixed;image=data:image/svg+xml,PD94bWwgdmVyc2lvbj0iMS4wIiBlbmNvZGluZz0idXRmLTgiPz4NCjwhLS0gVXBsb2FkZWQgdG86IFNWRyBSZXBvLCB3d3cuc3ZncmVwby5jb20sIEdlbmVyYXRvcjogU1ZHIFJlcG8gTWl4ZXIgVG9vbHMgLS0+DQo8c3ZnIHdpZHRoPSI4MDBweCIgaGVpZ2h0PSI4MDBweCIgdmlld0JveD0iMCAwIDEwMjQgMTAyNCIgY2xhc3M9Imljb24iICB2ZXJzaW9uPSIxLjEiIHhtbG5zPSJodHRwOi8vd3d3LnczLm9yZy8yMDAwL3N2ZyI+PHBhdGggZD0iTTExNyA2MDguNHYxNzguNWMxLjUgOTMuNyAxNTUuNyAxNjkuNSAzOTUgMTY5LjVzMzkzLjQtNzUuOCAzOTUtMTY5LjVWNjA4LjRIMTE3eiIgZmlsbD0iIzFCOUJEQiIgLz48cGF0aCBkPSJNOTA3IDYwNy43YzAgOTkuNC0xNTQuOCAxODAtMzk1IDE4MHMtMzk1LTgwLjYtMzk1LTE4MCAxNTQuOC0xODAgMzk1LTE4MCAzOTUgODAuNSAzOTUgMTgweiIgZmlsbD0iI0ZGRkZGRiIgLz48cGF0aCBkPSJNMTE3IDQyOC40djE1OC41YzEuNSA5My43IDE1NS43IDE3OS41IDM5NSAxNzkuNXMzOTMuNC04NS44IDM5NS0xNzkuNVY0MjguNEgxMTd6IiBmaWxsPSIjMUI5QkRCIiAvPjxwYXRoIGQ9Ik05MDcgNDI3LjdjMCA5OS40LTE1NC44IDE4MC0zOTUgMTgwcy0zOTUtODAuNi0zOTUtMTgwIDE1NC44LTE4MCAzOTUtMTgwIDM5NSA4MC41IDM5NSAxODB6IiBmaWxsPSIjRkZGRkZGIiAvPjxwYXRoIGQ9Ik0xMTcgMjQ4LjR2MTU4LjVjMS41IDkzLjcgMTU1LjcgMTc5LjUgMzk1IDE3OS41czM5My40LTg1LjggMzk1LTE3OS41VjI0OC40SDExN3oiIGZpbGw9IiMxQjlCREIiIC8+PHBhdGggZD0iTTkwNyAyNDcuN2MwIDk5LjQtMTU0LjggMTgwLTM5NSAxODBzLTM5NS04MC42LTM5NS0xODAgMTU0LjgtMTgwIDM5NS0xODAgMzk1IDgwLjUgMzk1IDE4MHoiIGZpbGw9IiMzRUQ2RkYiIC8+PC9zdmc+;" vertex="1" parent="1">
          <mxGeometry x="360" y="560" width="80" height="80" as="geometry" />
        </mxCell>
        <mxCell id="dD6pzufTazgub8E4TdOT-24" value="" style="shape=image;aspect=fixed;image=data:image/svg+xml,PD94bWwgdmVyc2lvbj0iMS4wIiBlbmNvZGluZz0idXRmLTgiPz4NCjwhLS0gVXBsb2FkZWQgdG86IFNWRyBSZXBvLCB3d3cuc3ZncmVwby5jb20sIEdlbmVyYXRvcjogU1ZHIFJlcG8gTWl4ZXIgVG9vbHMgLS0+DQo8c3ZnIHdpZHRoPSI4MDBweCIgaGVpZ2h0PSI4MDBweCIgdmlld0JveD0iMCAwIDEwMjQgMTAyNCIgY2xhc3M9Imljb24iICB2ZXJzaW9uPSIxLjEiIHhtbG5zPSJodHRwOi8vd3d3LnczLm9yZy8yMDAwL3N2ZyI+PHBhdGggZD0iTTQ0Ny41IDk2MC4zbC0zMjEtMTEwdi02NDJsMzIxIDgyeiIgZmlsbD0iIzM3QkJFRiIgLz48cGF0aCBkPSJNNDQ3LjUgOTYwLjNsNDUwLTI0MHYtNjAwbC00NTAgMTcweiIgZmlsbD0iIzI0ODFCQSIgLz48cGF0aCBkPSJNMTI2LjUgMjA4LjNsMzIxIDgyIDQ1MC0xNzAtMzQ0LjQtNTYuNnoiIGZpbGw9IiMzRUQ2RkYiIC8+PHBhdGggZD0iTTQwMC4zIDM0OC45djgwbC0yMzktNjB2LTgwbDIzOSA2MHogbS0yMzkgNDguM2wyMzkgNjB2LTEwbC0yMzktNjB2MTB6IG0wIDIzbDIzOSA2MHYtMTBsLTIzOS02MHYxMHogbTAgMjNsMjM5IDYwdi0xMGwtMjM5LTYwdjEweiIgZmlsbD0iI0Q0RjdGRiIgLz48cGF0aCBkPSJNMTc1LjcgMzA4LjR2MzRsMjEwLjIgNTN2LTM0ek0xNzUuNyAzNjMuNGwyMTAuMiA1M3YtMTMuM2wtMjEwLjItNTN6IiBmaWxsPSIjMTEzQjQyIiAvPjxwYXRoIGQ9Ik00NDcuNSA4OTQuMXYtNS4ybC0xNzQuNC01NS4zLTEuMiA0Ljh6TTI3MS45IDgwOS4zTDQ0Ny41IDg2NHYtNS4zbC0xNzQuNC01NC4zek0yNzEuOSA3ODAuMWwxNzUuNiA1My43di01LjJsLTE3NC40LTUzLjR6TTQ0Ny41IDcwNy45bC0xNzQuNC00OS4zLTEuMiA0LjggMTc1LjYgNDkuN3pNMjcxLjkgNjkyLjZsMTc1LjYgNTAuN3YtNS4ybC0xNzQuNC01MC40ek0yNzEuOSA3NTAuOWwxNzUuNiA1Mi43di01LjJsLTE3NC40LTUyLjN6TTI3MS45IDcyMS44bDE3NS42IDUxLjd2LTUuM2wtMTc0LjQtNTEuM3oiIGZpbGw9IiMwMDcxQkMiIC8+PHBhdGggZD0iTTM3OS41IDU0MC44Yy05LjQtMy40LTE3IDEuNi0xNyAxMS4yczcuNiAyMC4xIDE3IDIzLjIgMTctMS45IDE3LTExLjItNy42LTE5LjgtMTctMjMuMnpNMzc5LjUgNjAzLjZjLTMuOS0xLjItNyAxLTcgNC45czMuMSA4LjEgNyA5LjMgNy0xIDctNC45YzAtMy45LTMuMS04LTctOS4zeiIgZmlsbD0iI0ZGRkZGRiIgLz48L3N2Zz4=;" vertex="1" parent="1">
          <mxGeometry x="10" y="700" width="70" height="70" as="geometry" />
        </mxCell>
        <mxCell id="dD6pzufTazgub8E4TdOT-25" value="" style="shape=image;aspect=fixed;image=data:image/svg+xml,PD94bWwgdmVyc2lvbj0iMS4wIiBlbmNvZGluZz0idXRmLTgiPz4NCjwhLS0gVXBsb2FkZWQgdG86IFNWRyBSZXBvLCB3d3cuc3ZncmVwby5jb20sIEdlbmVyYXRvcjogU1ZHIFJlcG8gTWl4ZXIgVG9vbHMgLS0+DQo8c3ZnIHdpZHRoPSI4MDBweCIgaGVpZ2h0PSI4MDBweCIgdmlld0JveD0iMCAwIDEwMjQgMTAyNCIgY2xhc3M9Imljb24iICB2ZXJzaW9uPSIxLjEiIHhtbG5zPSJodHRwOi8vd3d3LnczLm9yZy8yMDAwL3N2ZyI+PHBhdGggZD0iTTQ0Ny41IDk2MC4zbC0zMjEtMTEwdi02NDJsMzIxIDgyeiIgZmlsbD0iIzM3QkJFRiIgLz48cGF0aCBkPSJNNDQ3LjUgOTYwLjNsNDUwLTI0MHYtNjAwbC00NTAgMTcweiIgZmlsbD0iIzI0ODFCQSIgLz48cGF0aCBkPSJNMTI2LjUgMjA4LjNsMzIxIDgyIDQ1MC0xNzAtMzQ0LjQtNTYuNnoiIGZpbGw9IiMzRUQ2RkYiIC8+PHBhdGggZD0iTTQwMC4zIDM0OC45djgwbC0yMzktNjB2LTgwbDIzOSA2MHogbS0yMzkgNDguM2wyMzkgNjB2LTEwbC0yMzktNjB2MTB6IG0wIDIzbDIzOSA2MHYtMTBsLTIzOS02MHYxMHogbTAgMjNsMjM5IDYwdi0xMGwtMjM5LTYwdjEweiIgZmlsbD0iI0Q0RjdGRiIgLz48cGF0aCBkPSJNMTc1LjcgMzA4LjR2MzRsMjEwLjIgNTN2LTM0ek0xNzUuNyAzNjMuNGwyMTAuMiA1M3YtMTMuM2wtMjEwLjItNTN6IiBmaWxsPSIjMTEzQjQyIiAvPjxwYXRoIGQ9Ik00NDcuNSA4OTQuMXYtNS4ybC0xNzQuNC01NS4zLTEuMiA0Ljh6TTI3MS45IDgwOS4zTDQ0Ny41IDg2NHYtNS4zbC0xNzQuNC01NC4zek0yNzEuOSA3ODAuMWwxNzUuNiA1My43di01LjJsLTE3NC40LTUzLjR6TTQ0Ny41IDcwNy45bC0xNzQuNC00OS4zLTEuMiA0LjggMTc1LjYgNDkuN3pNMjcxLjkgNjkyLjZsMTc1LjYgNTAuN3YtNS4ybC0xNzQuNC01MC40ek0yNzEuOSA3NTAuOWwxNzUuNiA1Mi43di01LjJsLTE3NC40LTUyLjN6TTI3MS45IDcyMS44bDE3NS42IDUxLjd2LTUuM2wtMTc0LjQtNTEuM3oiIGZpbGw9IiMwMDcxQkMiIC8+PHBhdGggZD0iTTM3OS41IDU0MC44Yy05LjQtMy40LTE3IDEuNi0xNyAxMS4yczcuNiAyMC4xIDE3IDIzLjIgMTctMS45IDE3LTExLjItNy42LTE5LjgtMTctMjMuMnpNMzc5LjUgNjAzLjZjLTMuOS0xLjItNyAxLTcgNC45czMuMSA4LjEgNyA5LjMgNy0xIDctNC45YzAtMy45LTMuMS04LTctOS4zeiIgZmlsbD0iI0ZGRkZGRiIgLz48L3N2Zz4=;" vertex="1" parent="1">
          <mxGeometry x="40" y="710" width="70" height="70" as="geometry" />
        </mxCell>
        <mxCell id="dD6pzufTazgub8E4TdOT-26" value="" style="shape=image;aspect=fixed;image=data:image/svg+xml,PD94bWwgdmVyc2lvbj0iMS4wIiBlbmNvZGluZz0idXRmLTgiPz4NCjwhLS0gVXBsb2FkZWQgdG86IFNWRyBSZXBvLCB3d3cuc3ZncmVwby5jb20sIEdlbmVyYXRvcjogU1ZHIFJlcG8gTWl4ZXIgVG9vbHMgLS0+DQo8c3ZnIHdpZHRoPSI4MDBweCIgaGVpZ2h0PSI4MDBweCIgdmlld0JveD0iMCAwIDEwMjQgMTAyNCIgY2xhc3M9Imljb24iICB2ZXJzaW9uPSIxLjEiIHhtbG5zPSJodHRwOi8vd3d3LnczLm9yZy8yMDAwL3N2ZyI+PHBhdGggZD0iTTQ0Ny41IDk2MC4zbC0zMjEtMTEwdi02NDJsMzIxIDgyeiIgZmlsbD0iIzM3QkJFRiIgLz48cGF0aCBkPSJNNDQ3LjUgOTYwLjNsNDUwLTI0MHYtNjAwbC00NTAgMTcweiIgZmlsbD0iIzI0ODFCQSIgLz48cGF0aCBkPSJNMTI2LjUgMjA4LjNsMzIxIDgyIDQ1MC0xNzAtMzQ0LjQtNTYuNnoiIGZpbGw9IiMzRUQ2RkYiIC8+PHBhdGggZD0iTTQwMC4zIDM0OC45djgwbC0yMzktNjB2LTgwbDIzOSA2MHogbS0yMzkgNDguM2wyMzkgNjB2LTEwbC0yMzktNjB2MTB6IG0wIDIzbDIzOSA2MHYtMTBsLTIzOS02MHYxMHogbTAgMjNsMjM5IDYwdi0xMGwtMjM5LTYwdjEweiIgZmlsbD0iI0Q0RjdGRiIgLz48cGF0aCBkPSJNMTc1LjcgMzA4LjR2MzRsMjEwLjIgNTN2LTM0ek0xNzUuNyAzNjMuNGwyMTAuMiA1M3YtMTMuM2wtMjEwLjItNTN6IiBmaWxsPSIjMTEzQjQyIiAvPjxwYXRoIGQ9Ik00NDcuNSA4OTQuMXYtNS4ybC0xNzQuNC01NS4zLTEuMiA0Ljh6TTI3MS45IDgwOS4zTDQ0Ny41IDg2NHYtNS4zbC0xNzQuNC01NC4zek0yNzEuOSA3ODAuMWwxNzUuNiA1My43di01LjJsLTE3NC40LTUzLjR6TTQ0Ny41IDcwNy45bC0xNzQuNC00OS4zLTEuMiA0LjggMTc1LjYgNDkuN3pNMjcxLjkgNjkyLjZsMTc1LjYgNTAuN3YtNS4ybC0xNzQuNC01MC40ek0yNzEuOSA3NTAuOWwxNzUuNiA1Mi43di01LjJsLTE3NC40LTUyLjN6TTI3MS45IDcyMS44bDE3NS42IDUxLjd2LTUuM2wtMTc0LjQtNTEuM3oiIGZpbGw9IiMwMDcxQkMiIC8+PHBhdGggZD0iTTM3OS41IDU0MC44Yy05LjQtMy40LTE3IDEuNi0xNyAxMS4yczcuNiAyMC4xIDE3IDIzLjIgMTctMS45IDE3LTExLjItNy42LTE5LjgtMTctMjMuMnpNMzc5LjUgNjAzLjZjLTMuOS0xLjItNyAxLTcgNC45czMuMSA4LjEgNyA5LjMgNy0xIDctNC45YzAtMy45LTMuMS04LTctOS4zeiIgZmlsbD0iI0ZGRkZGRiIgLz48L3N2Zz4=;" vertex="1" parent="1">
          <mxGeometry x="70" y="720" width="70" height="70" as="geometry" />
        </mxCell>
        <mxCell id="dD6pzufTazgub8E4TdOT-28" value="" style="shape=image;aspect=fixed;image=data:image/svg+xml,PD94bWwgdmVyc2lvbj0iMS4wIiBlbmNvZGluZz0idXRmLTgiPz4NCjwhLS0gVXBsb2FkZWQgdG86IFNWRyBSZXBvLCB3d3cuc3ZncmVwby5jb20sIEdlbmVyYXRvcjogU1ZHIFJlcG8gTWl4ZXIgVG9vbHMgLS0+DQo8c3ZnIHdpZHRoPSI4MDBweCIgaGVpZ2h0PSI4MDBweCIgdmlld0JveD0iMCAwIDEwMjQgMTAyNCIgY2xhc3M9Imljb24iICB2ZXJzaW9uPSIxLjEiIHhtbG5zPSJodHRwOi8vd3d3LnczLm9yZy8yMDAwL3N2ZyI+PHBhdGggZD0iTTQ0Ny41IDk2MC4zbC0zMjEtMTEwdi02NDJsMzIxIDgyeiIgZmlsbD0iIzM3QkJFRiIgLz48cGF0aCBkPSJNNDQ3LjUgOTYwLjNsNDUwLTI0MHYtNjAwbC00NTAgMTcweiIgZmlsbD0iIzI0ODFCQSIgLz48cGF0aCBkPSJNMTI2LjUgMjA4LjNsMzIxIDgyIDQ1MC0xNzAtMzQ0LjQtNTYuNnoiIGZpbGw9IiMzRUQ2RkYiIC8+PHBhdGggZD0iTTQwMC4zIDM0OC45djgwbC0yMzktNjB2LTgwbDIzOSA2MHogbS0yMzkgNDguM2wyMzkgNjB2LTEwbC0yMzktNjB2MTB6IG0wIDIzbDIzOSA2MHYtMTBsLTIzOS02MHYxMHogbTAgMjNsMjM5IDYwdi0xMGwtMjM5LTYwdjEweiIgZmlsbD0iI0Q0RjdGRiIgLz48cGF0aCBkPSJNMTc1LjcgMzA4LjR2MzRsMjEwLjIgNTN2LTM0ek0xNzUuNyAzNjMuNGwyMTAuMiA1M3YtMTMuM2wtMjEwLjItNTN6IiBmaWxsPSIjMTEzQjQyIiAvPjxwYXRoIGQ9Ik00NDcuNSA4OTQuMXYtNS4ybC0xNzQuNC01NS4zLTEuMiA0Ljh6TTI3MS45IDgwOS4zTDQ0Ny41IDg2NHYtNS4zbC0xNzQuNC01NC4zek0yNzEuOSA3ODAuMWwxNzUuNiA1My43di01LjJsLTE3NC40LTUzLjR6TTQ0Ny41IDcwNy45bC0xNzQuNC00OS4zLTEuMiA0LjggMTc1LjYgNDkuN3pNMjcxLjkgNjkyLjZsMTc1LjYgNTAuN3YtNS4ybC0xNzQuNC01MC40ek0yNzEuOSA3NTAuOWwxNzUuNiA1Mi43di01LjJsLTE3NC40LTUyLjN6TTI3MS45IDcyMS44bDE3NS42IDUxLjd2LTUuM2wtMTc0LjQtNTEuM3oiIGZpbGw9IiMwMDcxQkMiIC8+PHBhdGggZD0iTTM3OS41IDU0MC44Yy05LjQtMy40LTE3IDEuNi0xNyAxMS4yczcuNiAyMC4xIDE3IDIzLjIgMTctMS45IDE3LTExLjItNy42LTE5LjgtMTctMjMuMnpNMzc5LjUgNjAzLjZjLTMuOS0xLjItNyAxLTcgNC45czMuMSA4LjEgNyA5LjMgNy0xIDctNC45YzAtMy45LTMuMS04LTctOS4zeiIgZmlsbD0iI0ZGRkZGRiIgLz48L3N2Zz4=;" vertex="1" parent="1">
          <mxGeometry x="425" y="700" width="70" height="70" as="geometry" />
        </mxCell>
        <mxCell id="dD6pzufTazgub8E4TdOT-29" value="" style="shape=image;aspect=fixed;image=data:image/svg+xml,PD94bWwgdmVyc2lvbj0iMS4wIiBlbmNvZGluZz0idXRmLTgiPz4NCjwhLS0gVXBsb2FkZWQgdG86IFNWRyBSZXBvLCB3d3cuc3ZncmVwby5jb20sIEdlbmVyYXRvcjogU1ZHIFJlcG8gTWl4ZXIgVG9vbHMgLS0+DQo8c3ZnIHdpZHRoPSI4MDBweCIgaGVpZ2h0PSI4MDBweCIgdmlld0JveD0iMCAwIDEwMjQgMTAyNCIgY2xhc3M9Imljb24iICB2ZXJzaW9uPSIxLjEiIHhtbG5zPSJodHRwOi8vd3d3LnczLm9yZy8yMDAwL3N2ZyI+PHBhdGggZD0iTTQ0Ny41IDk2MC4zbC0zMjEtMTEwdi02NDJsMzIxIDgyeiIgZmlsbD0iIzM3QkJFRiIgLz48cGF0aCBkPSJNNDQ3LjUgOTYwLjNsNDUwLTI0MHYtNjAwbC00NTAgMTcweiIgZmlsbD0iIzI0ODFCQSIgLz48cGF0aCBkPSJNMTI2LjUgMjA4LjNsMzIxIDgyIDQ1MC0xNzAtMzQ0LjQtNTYuNnoiIGZpbGw9IiMzRUQ2RkYiIC8+PHBhdGggZD0iTTQwMC4zIDM0OC45djgwbC0yMzktNjB2LTgwbDIzOSA2MHogbS0yMzkgNDguM2wyMzkgNjB2LTEwbC0yMzktNjB2MTB6IG0wIDIzbDIzOSA2MHYtMTBsLTIzOS02MHYxMHogbTAgMjNsMjM5IDYwdi0xMGwtMjM5LTYwdjEweiIgZmlsbD0iI0Q0RjdGRiIgLz48cGF0aCBkPSJNMTc1LjcgMzA4LjR2MzRsMjEwLjIgNTN2LTM0ek0xNzUuNyAzNjMuNGwyMTAuMiA1M3YtMTMuM2wtMjEwLjItNTN6IiBmaWxsPSIjMTEzQjQyIiAvPjxwYXRoIGQ9Ik00NDcuNSA4OTQuMXYtNS4ybC0xNzQuNC01NS4zLTEuMiA0Ljh6TTI3MS45IDgwOS4zTDQ0Ny41IDg2NHYtNS4zbC0xNzQuNC01NC4zek0yNzEuOSA3ODAuMWwxNzUuNiA1My43di01LjJsLTE3NC40LTUzLjR6TTQ0Ny41IDcwNy45bC0xNzQuNC00OS4zLTEuMiA0LjggMTc1LjYgNDkuN3pNMjcxLjkgNjkyLjZsMTc1LjYgNTAuN3YtNS4ybC0xNzQuNC01MC40ek0yNzEuOSA3NTAuOWwxNzUuNiA1Mi43di01LjJsLTE3NC40LTUyLjN6TTI3MS45IDcyMS44bDE3NS42IDUxLjd2LTUuM2wtMTc0LjQtNTEuM3oiIGZpbGw9IiMwMDcxQkMiIC8+PHBhdGggZD0iTTM3OS41IDU0MC44Yy05LjQtMy40LTE3IDEuNi0xNyAxMS4yczcuNiAyMC4xIDE3IDIzLjIgMTctMS45IDE3LTExLjItNy42LTE5LjgtMTctMjMuMnpNMzc5LjUgNjAzLjZjLTMuOS0xLjItNyAxLTcgNC45czMuMSA4LjEgNyA5LjMgNy0xIDctNC45YzAtMy45LTMuMS04LTctOS4zeiIgZmlsbD0iI0ZGRkZGRiIgLz48L3N2Zz4=;" vertex="1" parent="1">
          <mxGeometry x="455" y="710" width="70" height="70" as="geometry" />
        </mxCell>
        <mxCell id="dD6pzufTazgub8E4TdOT-30" value="" style="shape=image;aspect=fixed;image=data:image/svg+xml,PD94bWwgdmVyc2lvbj0iMS4wIiBlbmNvZGluZz0idXRmLTgiPz4NCjwhLS0gVXBsb2FkZWQgdG86IFNWRyBSZXBvLCB3d3cuc3ZncmVwby5jb20sIEdlbmVyYXRvcjogU1ZHIFJlcG8gTWl4ZXIgVG9vbHMgLS0+DQo8c3ZnIHdpZHRoPSI4MDBweCIgaGVpZ2h0PSI4MDBweCIgdmlld0JveD0iMCAwIDEwMjQgMTAyNCIgY2xhc3M9Imljb24iICB2ZXJzaW9uPSIxLjEiIHhtbG5zPSJodHRwOi8vd3d3LnczLm9yZy8yMDAwL3N2ZyI+PHBhdGggZD0iTTQ0Ny41IDk2MC4zbC0zMjEtMTEwdi02NDJsMzIxIDgyeiIgZmlsbD0iIzM3QkJFRiIgLz48cGF0aCBkPSJNNDQ3LjUgOTYwLjNsNDUwLTI0MHYtNjAwbC00NTAgMTcweiIgZmlsbD0iIzI0ODFCQSIgLz48cGF0aCBkPSJNMTI2LjUgMjA4LjNsMzIxIDgyIDQ1MC0xNzAtMzQ0LjQtNTYuNnoiIGZpbGw9IiMzRUQ2RkYiIC8+PHBhdGggZD0iTTQwMC4zIDM0OC45djgwbC0yMzktNjB2LTgwbDIzOSA2MHogbS0yMzkgNDguM2wyMzkgNjB2LTEwbC0yMzktNjB2MTB6IG0wIDIzbDIzOSA2MHYtMTBsLTIzOS02MHYxMHogbTAgMjNsMjM5IDYwdi0xMGwtMjM5LTYwdjEweiIgZmlsbD0iI0Q0RjdGRiIgLz48cGF0aCBkPSJNMTc1LjcgMzA4LjR2MzRsMjEwLjIgNTN2LTM0ek0xNzUuNyAzNjMuNGwyMTAuMiA1M3YtMTMuM2wtMjEwLjItNTN6IiBmaWxsPSIjMTEzQjQyIiAvPjxwYXRoIGQ9Ik00NDcuNSA4OTQuMXYtNS4ybC0xNzQuNC01NS4zLTEuMiA0Ljh6TTI3MS45IDgwOS4zTDQ0Ny41IDg2NHYtNS4zbC0xNzQuNC01NC4zek0yNzEuOSA3ODAuMWwxNzUuNiA1My43di01LjJsLTE3NC40LTUzLjR6TTQ0Ny41IDcwNy45bC0xNzQuNC00OS4zLTEuMiA0LjggMTc1LjYgNDkuN3pNMjcxLjkgNjkyLjZsMTc1LjYgNTAuN3YtNS4ybC0xNzQuNC01MC40ek0yNzEuOSA3NTAuOWwxNzUuNiA1Mi43di01LjJsLTE3NC40LTUyLjN6TTI3MS45IDcyMS44bDE3NS42IDUxLjd2LTUuM2wtMTc0LjQtNTEuM3oiIGZpbGw9IiMwMDcxQkMiIC8+PHBhdGggZD0iTTM3OS41IDU0MC44Yy05LjQtMy40LTE3IDEuNi0xNyAxMS4yczcuNiAyMC4xIDE3IDIzLjIgMTctMS45IDE3LTExLjItNy42LTE5LjgtMTctMjMuMnpNMzc5LjUgNjAzLjZjLTMuOS0xLjItNyAxLTcgNC45czMuMSA4LjEgNyA5LjMgNy0xIDctNC45YzAtMy45LTMuMS04LTctOS4zeiIgZmlsbD0iI0ZGRkZGRiIgLz48L3N2Zz4=;" vertex="1" parent="1">
          <mxGeometry x="485" y="720" width="70" height="70" as="geometry" />
        </mxCell>
        <mxCell id="dD6pzufTazgub8E4TdOT-31" value="" style="shape=image;aspect=fixed;image=data:image/svg+xml,PD94bWwgdmVyc2lvbj0iMS4wIiBlbmNvZGluZz0idXRmLTgiPz4NCjwhLS0gVXBsb2FkZWQgdG86IFNWRyBSZXBvLCB3d3cuc3ZncmVwby5jb20sIEdlbmVyYXRvcjogU1ZHIFJlcG8gTWl4ZXIgVG9vbHMgLS0+DQo8c3ZnIHdpZHRoPSI4MDBweCIgaGVpZ2h0PSI4MDBweCIgdmlld0JveD0iMCAwIDEwMjQgMTAyNCIgY2xhc3M9Imljb24iICB2ZXJzaW9uPSIxLjEiIHhtbG5zPSJodHRwOi8vd3d3LnczLm9yZy8yMDAwL3N2ZyI+PHBhdGggZD0iTTExNyA2MDguNHYxNzguNWMxLjUgOTMuNyAxNTUuNyAxNjkuNSAzOTUgMTY5LjVzMzkzLjQtNzUuOCAzOTUtMTY5LjVWNjA4LjRIMTE3eiIgZmlsbD0iIzFCOUJEQiIgLz48cGF0aCBkPSJNOTA3IDYwNy43YzAgOTkuNC0xNTQuOCAxODAtMzk1IDE4MHMtMzk1LTgwLjYtMzk1LTE4MCAxNTQuOC0xODAgMzk1LTE4MCAzOTUgODAuNSAzOTUgMTgweiIgZmlsbD0iI0ZGRkZGRiIgLz48cGF0aCBkPSJNMTE3IDQyOC40djE1OC41YzEuNSA5My43IDE1NS43IDE3OS41IDM5NSAxNzkuNXMzOTMuNC04NS44IDM5NS0xNzkuNVY0MjguNEgxMTd6IiBmaWxsPSIjMUI5QkRCIiAvPjxwYXRoIGQ9Ik05MDcgNDI3LjdjMCA5OS40LTE1NC44IDE4MC0zOTUgMTgwcy0zOTUtODAuNi0zOTUtMTgwIDE1NC44LTE4MCAzOTUtMTgwIDM5NSA4MC41IDM5NSAxODB6IiBmaWxsPSIjRkZGRkZGIiAvPjxwYXRoIGQ9Ik0xMTcgMjQ4LjR2MTU4LjVjMS41IDkzLjcgMTU1LjcgMTc5LjUgMzk1IDE3OS41czM5My40LTg1LjggMzk1LTE3OS41VjI0OC40SDExN3oiIGZpbGw9IiMxQjlCREIiIC8+PHBhdGggZD0iTTkwNyAyNDcuN2MwIDk5LjQtMTU0LjggMTgwLTM5NSAxODBzLTM5NS04MC42LTM5NS0xODAgMTU0LjgtMTgwIDM5NS0xODAgMzk1IDgwLjUgMzk1IDE4MHoiIGZpbGw9IiMzRUQ2RkYiIC8+PC9zdmc+;" vertex="1" parent="1">
          <mxGeometry x="40" y="870" width="70" height="70" as="geometry" />
        </mxCell>
        <mxCell id="dD6pzufTazgub8E4TdOT-32" value="" style="shape=image;aspect=fixed;image=data:image/svg+xml,PD94bWwgdmVyc2lvbj0iMS4wIiBlbmNvZGluZz0idXRmLTgiPz48IS0tIFVwbG9hZGVkIHRvOiBTVkcgUmVwbywgd3d3LnN2Z3JlcG8uY29tLCBHZW5lcmF0b3I6IFNWRyBSZXBvIE1peGVyIFRvb2xzIC0tPgo8c3ZnIHdpZHRoPSI4MDBweCIgaGVpZ2h0PSI4MDBweCIgdmlld0JveD0iMCAtMTEuMTggNjkuOTk5IDY5Ljk5OSIgeG1sbnM6ZGM9Imh0dHA6Ly9wdXJsLm9yZy9kYy9lbGVtZW50cy8xLjEvIiB4bWxuczpjYz0iaHR0cDovL2NyZWF0aXZlY29tbW9ucy5vcmcvbnMjIiB4bWxuczpyZGY9Imh0dHA6Ly93d3cudzMub3JnLzE5OTkvMDIvMjItcmRmLXN5bnRheC1ucyMiIHhtbG5zPSJodHRwOi8vd3d3LnczLm9yZy8yMDAwL3N2ZyI+CiAgICA8bWV0YWRhdGE+CiAgICAgICAgPHJkZjpSREY+CiAgICAgICAgICAgIDxjYzpXb3JrPgogICAgICAgICAgICAgICAgPGRjOnN1YmplY3Q+CiAgICAgICAgICAgICAgICAgICAgTmV0d29yawogICAgICAgICAgICAgICAgPC9kYzpzdWJqZWN0PgogICAgICAgICAgICAgICAgPGRjOmlkZW50aWZpZXI+CiAgICAgICAgICAgICAgICAgICAgY29udGVudC1kZWxpdmVyeS1uZXR3b3JrLWNkbgogICAgICAgICAgICAgICAgPC9kYzppZGVudGlmaWVyPgogICAgICAgICAgICAgICAgPGRjOnRpdGxlPgogICAgICAgICAgICAgICAgICAgIENvbnRlbnQgRGVsaXZlcnkgTmV0d29yayAoQ0ROKQogICAgICAgICAgICAgICAgPC9kYzp0aXRsZT4KICAgICAgICAgICAgICAgIDxkYzpmb3JtYXQ+CiAgICAgICAgICAgICAgICAgICAgaW1hZ2Uvc3ZnK3htbAogICAgICAgICAgICAgICAgPC9kYzpmb3JtYXQ+CiAgICAgICAgICAgICAgICA8ZGM6cHVibGlzaGVyPgogICAgICAgICAgICAgICAgICAgIEFtaWRvIExpbWl0ZWQKICAgICAgICAgICAgICAgIDwvZGM6cHVibGlzaGVyPgogICAgICAgICAgICAgICAgPGRjOmNyZWF0b3I+CiAgICAgICAgICAgICAgICAgICAgUmljaGFyZCBTbGF0ZXIKICAgICAgICAgICAgICAgIDwvZGM6Y3JlYXRvcj4KICAgICAgICAgICAgICAgIDxkYzp0eXBlIHJkZjpyZXNvdXJjZT0iaHR0cDovL3B1cmwub3JnL2RjL2RjbWl0eXBlL1N0aWxsSW1hZ2UiLz4KICAgICAgICAgICAgPC9jYzpXb3JrPgogICAgICAgIDwvcmRmOlJERj4KICAgIDwvbWV0YWRhdGE+CiAgICA8cGF0aCBkPSJtIC0xMzQuNzM2ODksNTQ3LjgwMjgxIGMgLTIuODM4MDMsLTAuNDc5OCAtNS4xNTUwMSwtMS42NTk0IC03LjMxNzM4LC0zLjcyNTMgLTMuNzY3MzEsLTMuNTk5MyAtNS4yMTA1NSwtOS4yNjE3IC0zLjYxMTMyLC0xNC4xNjg2IDEuMjM1MTYsLTMuNzg5OCAzLjg2MDM3LC02Ljc3MzQgNy40NTM5NCwtOC40NzE0IDAuODYxMzUsLTAuNDA3IDAuODY1NjcsLTAuNDExOSAwLjc4Mjk5LC0wLjg5MzEgLTAuNDMyNywtMi41MTc5IC0wLjM3MjEyLC00LjIzNyAwLjIxNzM3LC02LjE2ODkgMC4zOTEzMywtMS4yODI2IDEuMzc5NTYsLTMuMTA1MiAyLjIxODEyLC00LjA5MTEgMi40MDUxMiwtMi44Mjc2IDUuNDA3MTgsLTQuMjI4NCA5LjAyNTkxLC00LjIxMTYgMy4yMjExMSwwLjAxNSA1LjcxNzQsMS4wNDEyIDguMTg2NzcsMy4zNjU3IGwgMC42OTg1OSwwLjY1NzYgMC4zMzE4OSwtMC43MTc0IGMgMS40NTQ5OSwtMy4xNDUxIDQuNzIzODIsLTYuMzYwMyA3Ljk5MzMsLTcuODYyIDEuNDgzODMsLTAuNjgxNiAzLjgxMTMsLTEuMzczNCAzLjgxMTMsLTEuMTMyOCAwLDAuMDIyIC0xLjgyNjU4LDQuOTIxNyAtNC4wNTkwOCwxMC44ODg0IC0yLjMyNDYxLDYuMjEyOSAtNC4wNDE5LDEwLjk5NTUgLTQuMDE4ODgsMTEuMTkyNCBsIDAuMDQwMiwwLjM0MzggMy43Nzg0NCwwLjA2OSBjIDIuMDc4MTQsMC4wMzggMy44NTU3MywwLjExODggMy45NTAxOSwwLjE3OTkgMC4wOTQ1LDAuMDYxIDAuMTcxNzQsMC4yMzExIDAuMTcxNzQsMC4zNzc2IDAsMC4xNDY2IC0xLjQ5MDI4LDMuODk5IC0zLjMxMTczLDguMzM4OCAtNC4wMTIsOS43NzkzIC0zLjg2NjU1LDkuNDEzMyAtMy43MTg2Nyw5LjM1NTcgMC4xNDM2LC0wLjA1NiAyMi4wNzYxOTUsLTI1LjA0OTEgMjIuMzg3MzU1LC0yNS41MTE0IDAuMTg0OTksLTAuMjc0OCAwLjE4Nzk2LC0wLjMzODggMC4wMjA3LC0wLjQ0NTcgLTAuMTE0MTEsLTAuMDczIC0xLjk5NSwtMC4wODggLTQuNTI2NzIsLTAuMDM2IC00LjQ2MjUzLDAuMDkyIC00Ljk0Mjg2LDAuMDQ5IC00Ljk0Mjg2LC0wLjQ0MzUgMCwtMC4yNTk2IDYuNzI1MjksLTExLjYwMSA2Ljg3OTI1LC0xMS42MDEgMC4xOTc3NywwIDEuNjczMTgsMS4yOTM5IDIuNjA1NjEsMi4yODUxIDIuMTQ1NzcsMi4yODEgMy42MzY1MSw1LjMwNDkgNC4xODI3LDguNDg0MiAwLjI2MTgsMS41MjQgMC4yNjI0Nyw0LjA2NzYgMC4wMDEsNS41MTIzIC0wLjI0NzYyLDEuMzcwNSAtMC4yNTAyOSwxLjU4MDEgLTAuMDIwMSwxLjU4MDEgMC4zNTc3NSwwIDIuOTE4ODgsMS4zNDUzIDMuNzMxOTEsMS45NjAzIDIuNDc3NDEsMS44NzM5IDQuMzYxMzEsNC42NjI4IDUuMTcyNzIsNy42NTc1IDAuMjc1NDEsMS4wMTY1IDAuMzE1NjMsMS40Nzk3IDAuMzEwMjIsMy41NzI0IC0wLjAwNiwyLjIwMzEgLTAuMDM3MiwyLjUwOCAtMC4zNzYzOCwzLjY0MSAtMS40NzU2LDQuOTI5NSAtNS4wNDc5MSw4LjQ0MjQgLTkuOTY3ODUsOS44MDE5IGwgLTEuMzIxNjEsMC4zNjUyIC0yMi44MDgwNDUsMC4wMjIgYyAtMTkuMDUxODcsMC4wMTggLTIyLjk5NjQ0LC0wLjAxIC0yMy45NTIwOCwtMC4xNzEzIHoiIGZpbGw9IiMwMGJjZjIiIHRyYW5zZm9ybT0idHJhbnNsYXRlKDE0Ni4zMSAtNTAwLjMzNSkiLz4KPC9zdmc+;" vertex="1" parent="1">
          <mxGeometry x="200" y="870" width="70" height="70" as="geometry" />
        </mxCell>
      </root>
    </mxGraphModel>
  </diagram>
</mxfile>
